G04 #@! TF.FileFunction,Soldermask,Top*
%FSLAX46Y46*%
G04 Gerber Fmt 4.6, Leading zero omitted, Abs format (unit mm)*
G04 Created by KiCad (PCBNEW 4.0.7) date 09/04/18 00:03:24*
%MOMM*%
%LPD*%
G01*
G04 APERTURE LIST*
%ADD10C,0.100000*%
%ADD11C,0.127000*%
%ADD12C,3.600000*%
%ADD13R,1.150000X1.200000*%
%ADD14R,0.850000X1.000000*%
%ADD15C,2.600000*%
%ADD16R,1.200000X1.150000*%
%ADD17R,2.100000X2.100000*%
%ADD18O,2.100000X2.100000*%
%ADD19R,1.568400X2.000200*%
%ADD20R,0.900000X1.300000*%
%ADD21R,1.300000X0.900000*%
%ADD22R,3.900000X3.200000*%
%ADD23R,1.750000X1.750000*%
%ADD24O,1.750000X1.750000*%
%ADD25R,0.704800X1.390600*%
%ADD26C,1.200000*%
%ADD27C,1.400000*%
%ADD28R,3.550000X1.400000*%
%ADD29C,2.100000*%
G04 APERTURE END LIST*
D10*
D11*
X119798800Y-113594400D02*
X119951200Y-113594400D01*
X119951200Y-113594400D02*
X119951200Y-111765600D01*
X119951200Y-111765600D02*
X119798800Y-111765600D01*
X119798800Y-111765600D02*
X119798800Y-113594400D01*
D12*
X107000000Y-130000000D03*
D13*
X143624000Y-122598000D03*
X143624000Y-124098000D03*
D14*
X145529000Y-124398000D03*
X145529000Y-122298000D03*
D12*
X107000000Y-86000000D03*
X151000000Y-86000000D03*
X151000000Y-130000000D03*
D15*
X111000000Y-130000000D03*
X111000000Y-86000000D03*
X147000000Y-86000000D03*
X147000000Y-130000000D03*
D13*
X124000000Y-121750000D03*
X124000000Y-123250000D03*
D16*
X122530000Y-102520000D03*
X121030000Y-102520000D03*
D13*
X139052000Y-112946000D03*
X139052000Y-114446000D03*
X138925000Y-103675000D03*
X138925000Y-105175000D03*
D16*
X137540000Y-98075000D03*
X139040000Y-98075000D03*
X128015000Y-98075000D03*
X129515000Y-98075000D03*
X118490000Y-98075000D03*
X119990000Y-98075000D03*
D17*
X140000000Y-125500000D03*
D18*
X137460000Y-125500000D03*
D17*
X148000000Y-122000000D03*
D18*
X148000000Y-124540000D03*
D17*
X117970000Y-130968000D03*
D18*
X120510000Y-130968000D03*
D17*
X141465000Y-112680000D03*
D18*
X144005000Y-112680000D03*
X141465000Y-115220000D03*
X144005000Y-115220000D03*
X141465000Y-117760000D03*
X144005000Y-117760000D03*
D17*
X141465000Y-103155000D03*
D18*
X144005000Y-103155000D03*
X141465000Y-105695000D03*
X144005000Y-105695000D03*
X141465000Y-108235000D03*
X144005000Y-108235000D03*
D17*
X137020000Y-95535000D03*
D18*
X137020000Y-92995000D03*
X139560000Y-95535000D03*
X139560000Y-92995000D03*
X142100000Y-95535000D03*
X142100000Y-92995000D03*
D17*
X127495000Y-95535000D03*
D18*
X127495000Y-92995000D03*
X130035000Y-95535000D03*
X130035000Y-92995000D03*
X132575000Y-95535000D03*
X132575000Y-92995000D03*
D17*
X117970000Y-95535000D03*
D18*
X117970000Y-92995000D03*
X120510000Y-95535000D03*
X120510000Y-92995000D03*
X123050000Y-95535000D03*
X123050000Y-92995000D03*
D19*
X119113000Y-112680000D03*
X120637000Y-112680000D03*
D20*
X139040000Y-118395000D03*
X137540000Y-118395000D03*
X137540000Y-116490000D03*
X139040000Y-116490000D03*
X139040000Y-108870000D03*
X137540000Y-108870000D03*
X137540000Y-106965000D03*
X139040000Y-106965000D03*
D21*
X142735000Y-97960000D03*
X142735000Y-99460000D03*
X140830000Y-99460000D03*
X140830000Y-97960000D03*
X133210000Y-97960000D03*
X133210000Y-99460000D03*
X131305000Y-99460000D03*
X131305000Y-97960000D03*
X123685000Y-97960000D03*
X123685000Y-99460000D03*
X121780000Y-99460000D03*
X121780000Y-97960000D03*
X114922000Y-128186000D03*
X114922000Y-129686000D03*
X117970000Y-108755000D03*
X117970000Y-110255000D03*
X119240000Y-108755000D03*
X119240000Y-110255000D03*
D20*
X126745000Y-102520000D03*
X128245000Y-102520000D03*
D21*
X124955000Y-103270000D03*
X124955000Y-101770000D03*
X128130000Y-112565000D03*
X128130000Y-114065000D03*
X127050500Y-116668500D03*
X127050500Y-115168500D03*
X125463000Y-116668500D03*
X125463000Y-115168500D03*
X123685000Y-112565000D03*
X123685000Y-114065000D03*
X123685000Y-116605000D03*
X123685000Y-115105000D03*
D22*
X150000000Y-98500000D03*
D23*
X150000000Y-92000000D03*
D24*
X150000000Y-94000000D03*
X150000000Y-96000000D03*
D22*
X150000000Y-89500000D03*
D25*
X122635980Y-110515920D03*
X123286220Y-110515920D03*
X123936460Y-110515920D03*
X124586700Y-110515920D03*
X125236940Y-110515920D03*
X125887180Y-110515920D03*
X126537420Y-110515920D03*
X127182580Y-110515920D03*
X127832820Y-110515920D03*
X128483060Y-110515920D03*
X129133300Y-110515920D03*
X129783540Y-110515920D03*
X130433780Y-110515920D03*
X131084020Y-110515920D03*
X131084020Y-104684080D03*
X130433780Y-104684080D03*
X129783540Y-104684080D03*
X129133300Y-104684080D03*
X128483060Y-104684080D03*
X127832820Y-104684080D03*
X127182580Y-104684080D03*
X126537420Y-104684080D03*
X125887180Y-104684080D03*
X125236940Y-104684080D03*
X124586700Y-104684080D03*
X123936460Y-104684080D03*
X123286220Y-104684080D03*
X122635980Y-104684080D03*
D26*
X110000000Y-121970000D03*
D27*
X110000000Y-124510000D03*
D26*
X110000000Y-94030000D03*
D28*
X107475000Y-90220000D03*
X107475000Y-102920000D03*
X107475000Y-100380000D03*
X107475000Y-97840000D03*
X107475000Y-95300000D03*
X107475000Y-92760000D03*
D26*
X106825000Y-90220000D03*
D28*
X112525000Y-90220000D03*
X112525000Y-92760000D03*
X112525000Y-95300000D03*
X112525000Y-97840000D03*
X112525000Y-100380000D03*
X112525000Y-102920000D03*
X107475000Y-105460000D03*
X112525000Y-105460000D03*
X107475000Y-108000000D03*
X112525000Y-108000000D03*
X107475000Y-110540000D03*
X112525000Y-110540000D03*
X107475000Y-113080000D03*
X112525000Y-113080000D03*
X107475000Y-115620000D03*
X112525000Y-115620000D03*
X107475000Y-118160000D03*
X112525000Y-118160000D03*
X107475000Y-120700000D03*
X112525000Y-120700000D03*
X107475000Y-123240000D03*
X112525000Y-123240000D03*
X107475000Y-125780000D03*
X112525000Y-125780000D03*
D26*
X106825000Y-92760000D03*
X106825000Y-95300000D03*
X106825000Y-97840000D03*
X106825000Y-100380000D03*
X106825000Y-102920000D03*
X106825000Y-105460000D03*
X106825000Y-108000000D03*
X106825000Y-110540000D03*
X106825000Y-113080000D03*
X106825000Y-115620000D03*
X106825000Y-118160000D03*
X106825000Y-120700000D03*
X106825000Y-123240000D03*
X106825000Y-125780000D03*
X113175000Y-90220000D03*
X113175000Y-92760000D03*
X113175000Y-95300000D03*
X113175000Y-97840000D03*
X113175000Y-100380000D03*
X113175000Y-102920000D03*
X113175000Y-105460000D03*
X113175000Y-108000000D03*
X113175000Y-110540000D03*
X113175000Y-113080000D03*
X113175000Y-115620000D03*
X113175000Y-118160000D03*
X113175000Y-120700000D03*
X113175000Y-123240000D03*
X113175000Y-125780000D03*
D27*
X110000000Y-91490000D03*
D29*
X108730000Y-90220000D03*
X111270000Y-90220000D03*
X108730000Y-92760000D03*
X111270000Y-92760000D03*
X108730000Y-95300000D03*
X111270000Y-95300000D03*
X108730000Y-97840000D03*
X111270000Y-97840000D03*
X108730000Y-100380000D03*
X111270000Y-100380000D03*
X108730000Y-102920000D03*
X111270000Y-102920000D03*
X108730000Y-105460000D03*
X111270000Y-105460000D03*
X108730000Y-108000000D03*
X111270000Y-108000000D03*
X108730000Y-110540000D03*
X111270000Y-110540000D03*
X108730000Y-113080000D03*
X111270000Y-113080000D03*
X108730000Y-115620000D03*
X111270000Y-115620000D03*
X108730000Y-118160000D03*
X111270000Y-118160000D03*
X108730000Y-120700000D03*
X111270000Y-120700000D03*
X108730000Y-123240000D03*
X111270000Y-123240000D03*
X108730000Y-125780000D03*
X111270000Y-125780000D03*
M02*
