G04 #@! TF.FileFunction,Legend,Top*
%FSLAX46Y46*%
G04 Gerber Fmt 4.6, Leading zero omitted, Abs format (unit mm)*
G04 Created by KiCad (PCBNEW 4.0.7) date 09/04/18 00:03:24*
%MOMM*%
%LPD*%
G01*
G04 APERTURE LIST*
%ADD10C,0.100000*%
%ADD11C,0.120000*%
%ADD12C,0.150000*%
%ADD13C,0.200000*%
%ADD14C,0.203200*%
%ADD15C,0.152400*%
%ADD16C,0.050800*%
%ADD17C,0.144780*%
%ADD18C,0.127000*%
%ADD19C,3.600000*%
%ADD20R,1.150000X1.200000*%
%ADD21R,0.850000X1.000000*%
%ADD22C,2.600000*%
%ADD23R,1.200000X1.150000*%
%ADD24R,2.100000X2.100000*%
%ADD25O,2.100000X2.100000*%
%ADD26R,1.568400X2.000200*%
%ADD27R,0.900000X1.300000*%
%ADD28R,1.300000X0.900000*%
%ADD29R,3.900000X3.200000*%
%ADD30R,1.750000X1.750000*%
%ADD31O,1.750000X1.750000*%
%ADD32R,0.704800X1.390600*%
%ADD33C,1.200000*%
%ADD34C,1.400000*%
%ADD35R,3.550000X1.400000*%
%ADD36C,2.100000*%
G04 APERTURE END LIST*
D10*
D11*
X116554000Y-87127523D02*
X116515905Y-87203714D01*
X116515905Y-87317999D01*
X116554000Y-87432285D01*
X116630190Y-87508476D01*
X116706381Y-87546571D01*
X116858762Y-87584666D01*
X116973048Y-87584666D01*
X117125429Y-87546571D01*
X117201619Y-87508476D01*
X117277810Y-87432285D01*
X117315905Y-87317999D01*
X117315905Y-87241809D01*
X117277810Y-87127523D01*
X117239714Y-87089428D01*
X116973048Y-87089428D01*
X116973048Y-87241809D01*
X117315905Y-86746571D02*
X116515905Y-86746571D01*
X117315905Y-86289428D01*
X116515905Y-86289428D01*
X117315905Y-85908476D02*
X116515905Y-85908476D01*
X116515905Y-85718000D01*
X116554000Y-85603714D01*
X116630190Y-85527523D01*
X116706381Y-85489428D01*
X116858762Y-85451333D01*
X116973048Y-85451333D01*
X117125429Y-85489428D01*
X117201619Y-85527523D01*
X117277810Y-85603714D01*
X117315905Y-85718000D01*
X117315905Y-85908476D01*
D12*
X125852000Y-85501904D02*
X125804381Y-85597142D01*
X125804381Y-85739999D01*
X125852000Y-85882857D01*
X125947238Y-85978095D01*
X126042476Y-86025714D01*
X126232952Y-86073333D01*
X126375810Y-86073333D01*
X126566286Y-86025714D01*
X126661524Y-85978095D01*
X126756762Y-85882857D01*
X126804381Y-85739999D01*
X126804381Y-85644761D01*
X126756762Y-85501904D01*
X126709143Y-85454285D01*
X126375810Y-85454285D01*
X126375810Y-85644761D01*
X126804381Y-85025714D02*
X125804381Y-85025714D01*
X126804381Y-84454285D01*
X125804381Y-84454285D01*
X126804381Y-83978095D02*
X125804381Y-83978095D01*
X125804381Y-83740000D01*
X125852000Y-83597142D01*
X125947238Y-83501904D01*
X126042476Y-83454285D01*
X126232952Y-83406666D01*
X126375810Y-83406666D01*
X126566286Y-83454285D01*
X126661524Y-83501904D01*
X126756762Y-83597142D01*
X126804381Y-83740000D01*
X126804381Y-83978095D01*
X135250000Y-85247904D02*
X135202381Y-85343142D01*
X135202381Y-85485999D01*
X135250000Y-85628857D01*
X135345238Y-85724095D01*
X135440476Y-85771714D01*
X135630952Y-85819333D01*
X135773810Y-85819333D01*
X135964286Y-85771714D01*
X136059524Y-85724095D01*
X136154762Y-85628857D01*
X136202381Y-85485999D01*
X136202381Y-85390761D01*
X136154762Y-85247904D01*
X136107143Y-85200285D01*
X135773810Y-85200285D01*
X135773810Y-85390761D01*
X136202381Y-84771714D02*
X135202381Y-84771714D01*
X136202381Y-84200285D01*
X135202381Y-84200285D01*
X136202381Y-83724095D02*
X135202381Y-83724095D01*
X135202381Y-83486000D01*
X135250000Y-83343142D01*
X135345238Y-83247904D01*
X135440476Y-83200285D01*
X135630952Y-83152666D01*
X135773810Y-83152666D01*
X135964286Y-83200285D01*
X136059524Y-83247904D01*
X136154762Y-83343142D01*
X136202381Y-83486000D01*
X136202381Y-83724095D01*
X150482096Y-101512000D02*
X150386858Y-101464381D01*
X150244001Y-101464381D01*
X150101143Y-101512000D01*
X150005905Y-101607238D01*
X149958286Y-101702476D01*
X149910667Y-101892952D01*
X149910667Y-102035810D01*
X149958286Y-102226286D01*
X150005905Y-102321524D01*
X150101143Y-102416762D01*
X150244001Y-102464381D01*
X150339239Y-102464381D01*
X150482096Y-102416762D01*
X150529715Y-102369143D01*
X150529715Y-102035810D01*
X150339239Y-102035810D01*
X150958286Y-102464381D02*
X150958286Y-101464381D01*
X151529715Y-102464381D01*
X151529715Y-101464381D01*
X152005905Y-102464381D02*
X152005905Y-101464381D01*
X152244000Y-101464381D01*
X152386858Y-101512000D01*
X152482096Y-101607238D01*
X152529715Y-101702476D01*
X152577334Y-101892952D01*
X152577334Y-102035810D01*
X152529715Y-102226286D01*
X152482096Y-102321524D01*
X152386858Y-102416762D01*
X152244000Y-102464381D01*
X152005905Y-102464381D01*
X150482096Y-110910000D02*
X150386858Y-110862381D01*
X150244001Y-110862381D01*
X150101143Y-110910000D01*
X150005905Y-111005238D01*
X149958286Y-111100476D01*
X149910667Y-111290952D01*
X149910667Y-111433810D01*
X149958286Y-111624286D01*
X150005905Y-111719524D01*
X150101143Y-111814762D01*
X150244001Y-111862381D01*
X150339239Y-111862381D01*
X150482096Y-111814762D01*
X150529715Y-111767143D01*
X150529715Y-111433810D01*
X150339239Y-111433810D01*
X150958286Y-111862381D02*
X150958286Y-110862381D01*
X151529715Y-111862381D01*
X151529715Y-110862381D01*
X152005905Y-111862381D02*
X152005905Y-110862381D01*
X152244000Y-110862381D01*
X152386858Y-110910000D01*
X152482096Y-111005238D01*
X152529715Y-111100476D01*
X152577334Y-111290952D01*
X152577334Y-111433810D01*
X152529715Y-111624286D01*
X152482096Y-111719524D01*
X152386858Y-111814762D01*
X152244000Y-111862381D01*
X152005905Y-111862381D01*
D11*
X152583905Y-90569238D02*
X152583905Y-90416857D01*
X152622000Y-90340666D01*
X152698190Y-90264476D01*
X152850571Y-90226381D01*
X153117238Y-90226381D01*
X153269619Y-90264476D01*
X153345810Y-90340666D01*
X153383905Y-90416857D01*
X153383905Y-90569238D01*
X153345810Y-90645428D01*
X153269619Y-90721619D01*
X153117238Y-90759714D01*
X152850571Y-90759714D01*
X152698190Y-90721619D01*
X152622000Y-90645428D01*
X152583905Y-90569238D01*
X153383905Y-89883524D02*
X152583905Y-89883524D01*
X153383905Y-89426381D01*
X152583905Y-89426381D01*
D12*
X143203762Y-132745524D02*
X143251381Y-132602667D01*
X143251381Y-132364571D01*
X143203762Y-132269333D01*
X143156143Y-132221714D01*
X143060905Y-132174095D01*
X142965667Y-132174095D01*
X142870429Y-132221714D01*
X142822810Y-132269333D01*
X142775190Y-132364571D01*
X142727571Y-132555048D01*
X142679952Y-132650286D01*
X142632333Y-132697905D01*
X142537095Y-132745524D01*
X142441857Y-132745524D01*
X142346619Y-132697905D01*
X142299000Y-132650286D01*
X142251381Y-132555048D01*
X142251381Y-132316952D01*
X142299000Y-132174095D01*
X143251381Y-131745524D02*
X142251381Y-131745524D01*
X142727571Y-131745524D02*
X142727571Y-131174095D01*
X143251381Y-131174095D02*
X142251381Y-131174095D01*
X142251381Y-130507429D02*
X142251381Y-130316952D01*
X142299000Y-130221714D01*
X142394238Y-130126476D01*
X142584714Y-130078857D01*
X142918048Y-130078857D01*
X143108524Y-130126476D01*
X143203762Y-130221714D01*
X143251381Y-130316952D01*
X143251381Y-130507429D01*
X143203762Y-130602667D01*
X143108524Y-130697905D01*
X142918048Y-130745524D01*
X142584714Y-130745524D01*
X142394238Y-130697905D01*
X142299000Y-130602667D01*
X142251381Y-130507429D01*
X143251381Y-129078857D02*
X142775190Y-129412191D01*
X143251381Y-129650286D02*
X142251381Y-129650286D01*
X142251381Y-129269333D01*
X142299000Y-129174095D01*
X142346619Y-129126476D01*
X142441857Y-129078857D01*
X142584714Y-129078857D01*
X142679952Y-129126476D01*
X142727571Y-129174095D01*
X142775190Y-129269333D01*
X142775190Y-129650286D01*
X142251381Y-128793143D02*
X142251381Y-128221714D01*
X143251381Y-128507429D02*
X142251381Y-128507429D01*
X142727571Y-127888381D02*
X142727571Y-127126476D01*
X143013286Y-127126476D02*
X143013286Y-127888381D01*
X143251381Y-126650286D02*
X142251381Y-126650286D01*
X142584714Y-126174096D02*
X143251381Y-126174096D01*
X142679952Y-126174096D02*
X142632333Y-126126477D01*
X142584714Y-126031239D01*
X142584714Y-125888381D01*
X142632333Y-125793143D01*
X142727571Y-125745524D01*
X143251381Y-125745524D01*
X142584714Y-125412191D02*
X142584714Y-125031239D01*
X142251381Y-125269334D02*
X143108524Y-125269334D01*
X143203762Y-125221715D01*
X143251381Y-125126477D01*
X143251381Y-125031239D01*
X143901381Y-132126477D02*
X143901381Y-131936000D01*
X143949000Y-131840762D01*
X144044238Y-131745524D01*
X144234714Y-131697905D01*
X144568048Y-131697905D01*
X144758524Y-131745524D01*
X144853762Y-131840762D01*
X144901381Y-131936000D01*
X144901381Y-132126477D01*
X144853762Y-132221715D01*
X144758524Y-132316953D01*
X144568048Y-132364572D01*
X144234714Y-132364572D01*
X144044238Y-132316953D01*
X143949000Y-132221715D01*
X143901381Y-132126477D01*
X144234714Y-131269334D02*
X145234714Y-131269334D01*
X144282333Y-131269334D02*
X144234714Y-131174096D01*
X144234714Y-130983619D01*
X144282333Y-130888381D01*
X144329952Y-130840762D01*
X144425190Y-130793143D01*
X144710905Y-130793143D01*
X144806143Y-130840762D01*
X144853762Y-130888381D01*
X144901381Y-130983619D01*
X144901381Y-131174096D01*
X144853762Y-131269334D01*
X144853762Y-129983619D02*
X144901381Y-130078857D01*
X144901381Y-130269334D01*
X144853762Y-130364572D01*
X144758524Y-130412191D01*
X144377571Y-130412191D01*
X144282333Y-130364572D01*
X144234714Y-130269334D01*
X144234714Y-130078857D01*
X144282333Y-129983619D01*
X144377571Y-129936000D01*
X144472810Y-129936000D01*
X144568048Y-130412191D01*
X144234714Y-129507429D02*
X144901381Y-129507429D01*
X144329952Y-129507429D02*
X144282333Y-129459810D01*
X144234714Y-129364572D01*
X144234714Y-129221714D01*
X144282333Y-129126476D01*
X144377571Y-129078857D01*
X144901381Y-129078857D01*
X144377571Y-128602667D02*
X144377571Y-127840762D01*
X144663286Y-127840762D02*
X144663286Y-128602667D01*
X144377571Y-127364572D02*
X144377571Y-127031238D01*
X144901381Y-126888381D02*
X144901381Y-127364572D01*
X143901381Y-127364572D01*
X143901381Y-126888381D01*
X144901381Y-126555048D02*
X144234714Y-126031238D01*
X144234714Y-126555048D02*
X144901381Y-126031238D01*
X144234714Y-125793143D02*
X144234714Y-125412191D01*
X143901381Y-125650286D02*
X144758524Y-125650286D01*
X144853762Y-125602667D01*
X144901381Y-125507429D01*
X144901381Y-125412191D01*
X121010000Y-118268096D02*
X121057619Y-118172858D01*
X121057619Y-118030001D01*
X121010000Y-117887143D01*
X120914762Y-117791905D01*
X120819524Y-117744286D01*
X120629048Y-117696667D01*
X120486190Y-117696667D01*
X120295714Y-117744286D01*
X120200476Y-117791905D01*
X120105238Y-117887143D01*
X120057619Y-118030001D01*
X120057619Y-118125239D01*
X120105238Y-118268096D01*
X120152857Y-118315715D01*
X120486190Y-118315715D01*
X120486190Y-118125239D01*
X120057619Y-118744286D02*
X121057619Y-118744286D01*
X120057619Y-119315715D01*
X121057619Y-119315715D01*
X120057619Y-119791905D02*
X121057619Y-119791905D01*
X121057619Y-120030000D01*
X121010000Y-120172858D01*
X120914762Y-120268096D01*
X120819524Y-120315715D01*
X120629048Y-120363334D01*
X120486190Y-120363334D01*
X120295714Y-120315715D01*
X120200476Y-120268096D01*
X120105238Y-120172858D01*
X120057619Y-120030000D01*
X120057619Y-119791905D01*
X118041429Y-118164905D02*
X117993810Y-118307762D01*
X117946190Y-118355381D01*
X117850952Y-118403000D01*
X117708095Y-118403000D01*
X117612857Y-118355381D01*
X117565238Y-118307762D01*
X117517619Y-118212524D01*
X117517619Y-117831571D01*
X118517619Y-117831571D01*
X118517619Y-118164905D01*
X118470000Y-118260143D01*
X118422381Y-118307762D01*
X118327143Y-118355381D01*
X118231905Y-118355381D01*
X118136667Y-118307762D01*
X118089048Y-118260143D01*
X118041429Y-118164905D01*
X118041429Y-117831571D01*
X117803333Y-118783952D02*
X117803333Y-119260143D01*
X117517619Y-118688714D02*
X118517619Y-119022047D01*
X117517619Y-119355381D01*
X118517619Y-119545857D02*
X118517619Y-120117286D01*
X117517619Y-119831571D02*
X118517619Y-119831571D01*
X151069524Y-126102381D02*
X151402857Y-127102381D01*
X151736191Y-126102381D01*
X152498096Y-127054762D02*
X152402858Y-127102381D01*
X152212381Y-127102381D01*
X152117143Y-127054762D01*
X152069524Y-127007143D01*
X152021905Y-126911905D01*
X152021905Y-126626190D01*
X152069524Y-126530952D01*
X152117143Y-126483333D01*
X152212381Y-126435714D01*
X152402858Y-126435714D01*
X152498096Y-126483333D01*
X153355239Y-127054762D02*
X153260001Y-127102381D01*
X153069524Y-127102381D01*
X152974286Y-127054762D01*
X152926667Y-127007143D01*
X152879048Y-126911905D01*
X152879048Y-126626190D01*
X152926667Y-126530952D01*
X152974286Y-126483333D01*
X153069524Y-126435714D01*
X153260001Y-126435714D01*
X153355239Y-126483333D01*
X151498096Y-119292000D02*
X151402858Y-119244381D01*
X151260001Y-119244381D01*
X151117143Y-119292000D01*
X151021905Y-119387238D01*
X150974286Y-119482476D01*
X150926667Y-119672952D01*
X150926667Y-119815810D01*
X150974286Y-120006286D01*
X151021905Y-120101524D01*
X151117143Y-120196762D01*
X151260001Y-120244381D01*
X151355239Y-120244381D01*
X151498096Y-120196762D01*
X151545715Y-120149143D01*
X151545715Y-119815810D01*
X151355239Y-119815810D01*
X151974286Y-120244381D02*
X151974286Y-119244381D01*
X152545715Y-120244381D01*
X152545715Y-119244381D01*
X153021905Y-120244381D02*
X153021905Y-119244381D01*
X153260000Y-119244381D01*
X153402858Y-119292000D01*
X153498096Y-119387238D01*
X153545715Y-119482476D01*
X153593334Y-119672952D01*
X153593334Y-119815810D01*
X153545715Y-120006286D01*
X153498096Y-120101524D01*
X153402858Y-120196762D01*
X153260000Y-120244381D01*
X153021905Y-120244381D01*
D13*
X116093643Y-99259643D02*
X117293643Y-99259643D01*
X116436500Y-99659643D01*
X117293643Y-100059643D01*
X116093643Y-100059643D01*
X116550786Y-100631072D02*
X116550786Y-101545358D01*
X116722214Y-102516786D02*
X116665071Y-102688215D01*
X116607929Y-102745358D01*
X116493643Y-102802501D01*
X116322214Y-102802501D01*
X116207929Y-102745358D01*
X116150786Y-102688215D01*
X116093643Y-102573929D01*
X116093643Y-102116786D01*
X117293643Y-102116786D01*
X117293643Y-102516786D01*
X117236500Y-102631072D01*
X117179357Y-102688215D01*
X117065071Y-102745358D01*
X116950786Y-102745358D01*
X116836500Y-102688215D01*
X116779357Y-102631072D01*
X116722214Y-102516786D01*
X116722214Y-102116786D01*
X117293643Y-103316786D02*
X116322214Y-103316786D01*
X116207929Y-103373929D01*
X116150786Y-103431072D01*
X116093643Y-103545358D01*
X116093643Y-103773929D01*
X116150786Y-103888215D01*
X116207929Y-103945358D01*
X116322214Y-104002501D01*
X117293643Y-104002501D01*
X116150786Y-104516786D02*
X116093643Y-104688215D01*
X116093643Y-104973929D01*
X116150786Y-105088215D01*
X116207929Y-105145358D01*
X116322214Y-105202501D01*
X116436500Y-105202501D01*
X116550786Y-105145358D01*
X116607929Y-105088215D01*
X116665071Y-104973929D01*
X116722214Y-104745358D01*
X116779357Y-104631072D01*
X116836500Y-104573929D01*
X116950786Y-104516786D01*
X117065071Y-104516786D01*
X117179357Y-104573929D01*
X117236500Y-104631072D01*
X117293643Y-104745358D01*
X117293643Y-105031072D01*
X117236500Y-105202501D01*
X115247429Y-125149905D02*
X115199810Y-125292762D01*
X115152190Y-125340381D01*
X115056952Y-125388000D01*
X114914095Y-125388000D01*
X114818857Y-125340381D01*
X114771238Y-125292762D01*
X114723619Y-125197524D01*
X114723619Y-124816571D01*
X115723619Y-124816571D01*
X115723619Y-125149905D01*
X115676000Y-125245143D01*
X115628381Y-125292762D01*
X115533143Y-125340381D01*
X115437905Y-125340381D01*
X115342667Y-125292762D01*
X115295048Y-125245143D01*
X115247429Y-125149905D01*
X115247429Y-124816571D01*
X115009333Y-125768952D02*
X115009333Y-126245143D01*
X114723619Y-125673714D02*
X115723619Y-126007047D01*
X114723619Y-126340381D01*
X115723619Y-126530857D02*
X115723619Y-127102286D01*
X114723619Y-126816571D02*
X115723619Y-126816571D01*
X115723619Y-123157524D02*
X115723619Y-122681333D01*
X115247429Y-122633714D01*
X115295048Y-122681333D01*
X115342667Y-122776571D01*
X115342667Y-123014667D01*
X115295048Y-123109905D01*
X115247429Y-123157524D01*
X115152190Y-123205143D01*
X114914095Y-123205143D01*
X114818857Y-123157524D01*
X114771238Y-123109905D01*
X114723619Y-123014667D01*
X114723619Y-122776571D01*
X114771238Y-122681333D01*
X114818857Y-122633714D01*
X115723619Y-123490857D02*
X114723619Y-123824190D01*
X115723619Y-124157524D01*
X115723619Y-119998476D02*
X115723619Y-120617524D01*
X115342667Y-120284190D01*
X115342667Y-120427048D01*
X115295048Y-120522286D01*
X115247429Y-120569905D01*
X115152190Y-120617524D01*
X114914095Y-120617524D01*
X114818857Y-120569905D01*
X114771238Y-120522286D01*
X114723619Y-120427048D01*
X114723619Y-120141333D01*
X114771238Y-120046095D01*
X114818857Y-119998476D01*
X115390286Y-121474667D02*
X114723619Y-121474667D01*
X115771238Y-121236571D02*
X115056952Y-120998476D01*
X115056952Y-121617524D01*
X115723619Y-118220381D02*
X115723619Y-118315620D01*
X115676000Y-118410858D01*
X115628381Y-118458477D01*
X115533143Y-118506096D01*
X115342667Y-118553715D01*
X115104571Y-118553715D01*
X114914095Y-118506096D01*
X114818857Y-118458477D01*
X114771238Y-118410858D01*
X114723619Y-118315620D01*
X114723619Y-118220381D01*
X114771238Y-118125143D01*
X114818857Y-118077524D01*
X114914095Y-118029905D01*
X115104571Y-117982286D01*
X115342667Y-117982286D01*
X115533143Y-118029905D01*
X115628381Y-118077524D01*
X115676000Y-118125143D01*
X115723619Y-118220381D01*
X114723619Y-115537524D02*
X114723619Y-114966095D01*
X114723619Y-115251809D02*
X115723619Y-115251809D01*
X115580762Y-115156571D01*
X115485524Y-115061333D01*
X115437905Y-114966095D01*
X115723619Y-115870857D02*
X115723619Y-116489905D01*
X115342667Y-116156571D01*
X115342667Y-116299429D01*
X115295048Y-116394667D01*
X115247429Y-116442286D01*
X115152190Y-116489905D01*
X114914095Y-116489905D01*
X114818857Y-116442286D01*
X114771238Y-116394667D01*
X114723619Y-116299429D01*
X114723619Y-116013714D01*
X114771238Y-115918476D01*
X114818857Y-115870857D01*
X115723619Y-113426096D02*
X115723619Y-112949905D01*
X115247429Y-112902286D01*
X115295048Y-112949905D01*
X115342667Y-113045143D01*
X115342667Y-113283239D01*
X115295048Y-113378477D01*
X115247429Y-113426096D01*
X115152190Y-113473715D01*
X114914095Y-113473715D01*
X114818857Y-113426096D01*
X114771238Y-113378477D01*
X114723619Y-113283239D01*
X114723619Y-113045143D01*
X114771238Y-112949905D01*
X114818857Y-112902286D01*
X115628381Y-109886095D02*
X115676000Y-109933714D01*
X115723619Y-110028952D01*
X115723619Y-110267048D01*
X115676000Y-110362286D01*
X115628381Y-110409905D01*
X115533143Y-110457524D01*
X115437905Y-110457524D01*
X115295048Y-110409905D01*
X114723619Y-109838476D01*
X114723619Y-110457524D01*
X115628381Y-110838476D02*
X115676000Y-110886095D01*
X115723619Y-110981333D01*
X115723619Y-111219429D01*
X115676000Y-111314667D01*
X115628381Y-111362286D01*
X115533143Y-111409905D01*
X115437905Y-111409905D01*
X115295048Y-111362286D01*
X114723619Y-110790857D01*
X114723619Y-111409905D01*
X114723619Y-107917524D02*
X114723619Y-107346095D01*
X114723619Y-107631809D02*
X115723619Y-107631809D01*
X115580762Y-107536571D01*
X115485524Y-107441333D01*
X115437905Y-107346095D01*
X115723619Y-108250857D02*
X115723619Y-108917524D01*
X114723619Y-108488952D01*
X114723619Y-105853715D02*
X114723619Y-105282286D01*
X114723619Y-105568000D02*
X115723619Y-105568000D01*
X115580762Y-105472762D01*
X115485524Y-105377524D01*
X115437905Y-105282286D01*
X115723619Y-101789905D02*
X115723619Y-102408953D01*
X115342667Y-102075619D01*
X115342667Y-102218477D01*
X115295048Y-102313715D01*
X115247429Y-102361334D01*
X115152190Y-102408953D01*
X114914095Y-102408953D01*
X114818857Y-102361334D01*
X114771238Y-102313715D01*
X114723619Y-102218477D01*
X114723619Y-101932762D01*
X114771238Y-101837524D01*
X114818857Y-101789905D01*
X115723619Y-102694667D02*
X114723619Y-103028000D01*
X115723619Y-103361334D01*
X115723619Y-103599429D02*
X115723619Y-104218477D01*
X115342667Y-103885143D01*
X115342667Y-104028001D01*
X115295048Y-104123239D01*
X115247429Y-104170858D01*
X115152190Y-104218477D01*
X114914095Y-104218477D01*
X114818857Y-104170858D01*
X114771238Y-104123239D01*
X114723619Y-104028001D01*
X114723619Y-103742286D01*
X114771238Y-103647048D01*
X114818857Y-103599429D01*
X115628381Y-99726095D02*
X115676000Y-99773714D01*
X115723619Y-99868952D01*
X115723619Y-100107048D01*
X115676000Y-100202286D01*
X115628381Y-100249905D01*
X115533143Y-100297524D01*
X115437905Y-100297524D01*
X115295048Y-100249905D01*
X114723619Y-99678476D01*
X114723619Y-100297524D01*
X115723619Y-101154667D02*
X115723619Y-100964190D01*
X115676000Y-100868952D01*
X115628381Y-100821333D01*
X115485524Y-100726095D01*
X115295048Y-100678476D01*
X114914095Y-100678476D01*
X114818857Y-100726095D01*
X114771238Y-100773714D01*
X114723619Y-100868952D01*
X114723619Y-101059429D01*
X114771238Y-101154667D01*
X114818857Y-101202286D01*
X114914095Y-101249905D01*
X115152190Y-101249905D01*
X115247429Y-101202286D01*
X115295048Y-101154667D01*
X115342667Y-101059429D01*
X115342667Y-100868952D01*
X115295048Y-100773714D01*
X115247429Y-100726095D01*
X115152190Y-100678476D01*
X115628381Y-97186095D02*
X115676000Y-97233714D01*
X115723619Y-97328952D01*
X115723619Y-97567048D01*
X115676000Y-97662286D01*
X115628381Y-97709905D01*
X115533143Y-97757524D01*
X115437905Y-97757524D01*
X115295048Y-97709905D01*
X114723619Y-97138476D01*
X114723619Y-97757524D01*
X115723619Y-98662286D02*
X115723619Y-98186095D01*
X115247429Y-98138476D01*
X115295048Y-98186095D01*
X115342667Y-98281333D01*
X115342667Y-98519429D01*
X115295048Y-98614667D01*
X115247429Y-98662286D01*
X115152190Y-98709905D01*
X114914095Y-98709905D01*
X114818857Y-98662286D01*
X114771238Y-98614667D01*
X114723619Y-98519429D01*
X114723619Y-98281333D01*
X114771238Y-98186095D01*
X114818857Y-98138476D01*
X115247429Y-94669905D02*
X115247429Y-95003239D01*
X114723619Y-95146096D02*
X114723619Y-94669905D01*
X115723619Y-94669905D01*
X115723619Y-95146096D01*
X114723619Y-95574667D02*
X115723619Y-95574667D01*
X114723619Y-96146096D01*
X115723619Y-96146096D01*
X115723619Y-92058476D02*
X115723619Y-92677524D01*
X115342667Y-92344190D01*
X115342667Y-92487048D01*
X115295048Y-92582286D01*
X115247429Y-92629905D01*
X115152190Y-92677524D01*
X114914095Y-92677524D01*
X114818857Y-92629905D01*
X114771238Y-92582286D01*
X114723619Y-92487048D01*
X114723619Y-92201333D01*
X114771238Y-92106095D01*
X114818857Y-92058476D01*
X115723619Y-93534667D02*
X115723619Y-93344190D01*
X115676000Y-93248952D01*
X115628381Y-93201333D01*
X115485524Y-93106095D01*
X115295048Y-93058476D01*
X114914095Y-93058476D01*
X114818857Y-93106095D01*
X114771238Y-93153714D01*
X114723619Y-93248952D01*
X114723619Y-93439429D01*
X114771238Y-93534667D01*
X114818857Y-93582286D01*
X114914095Y-93629905D01*
X115152190Y-93629905D01*
X115247429Y-93582286D01*
X115295048Y-93534667D01*
X115342667Y-93439429D01*
X115342667Y-93248952D01*
X115295048Y-93153714D01*
X115247429Y-93106095D01*
X115152190Y-93058476D01*
X115723619Y-89518476D02*
X115723619Y-90137524D01*
X115342667Y-89804190D01*
X115342667Y-89947048D01*
X115295048Y-90042286D01*
X115247429Y-90089905D01*
X115152190Y-90137524D01*
X114914095Y-90137524D01*
X114818857Y-90089905D01*
X114771238Y-90042286D01*
X114723619Y-89947048D01*
X114723619Y-89661333D01*
X114771238Y-89566095D01*
X114818857Y-89518476D01*
X115723619Y-91042286D02*
X115723619Y-90566095D01*
X115247429Y-90518476D01*
X115295048Y-90566095D01*
X115342667Y-90661333D01*
X115342667Y-90899429D01*
X115295048Y-90994667D01*
X115247429Y-91042286D01*
X115152190Y-91089905D01*
X114914095Y-91089905D01*
X114818857Y-91042286D01*
X114771238Y-90994667D01*
X114723619Y-90899429D01*
X114723619Y-90661333D01*
X114771238Y-90566095D01*
X114818857Y-90518476D01*
X105778000Y-126396000D02*
X104000000Y-126396000D01*
X105778000Y-120300000D02*
X105778000Y-126396000D01*
X104000000Y-120300000D02*
X105778000Y-120300000D01*
X105778000Y-89820000D02*
X105778000Y-95916000D01*
X105778000Y-95916000D02*
X104000000Y-95916000D01*
X104000000Y-89820000D02*
X105778000Y-89820000D01*
X105468381Y-125205143D02*
X104468381Y-125205143D01*
X104944571Y-125205143D02*
X104944571Y-124633714D01*
X105468381Y-124633714D02*
X104468381Y-124633714D01*
X105468381Y-124157524D02*
X104468381Y-124157524D01*
X104468381Y-123776571D01*
X104516000Y-123681333D01*
X104563619Y-123633714D01*
X104658857Y-123586095D01*
X104801714Y-123586095D01*
X104896952Y-123633714D01*
X104944571Y-123681333D01*
X104992190Y-123776571D01*
X104992190Y-124157524D01*
X104468381Y-123252762D02*
X105468381Y-123014667D01*
X104754095Y-122824190D01*
X105468381Y-122633714D01*
X104468381Y-122395619D01*
X105468381Y-121443238D02*
X104992190Y-121776572D01*
X105468381Y-122014667D02*
X104468381Y-122014667D01*
X104468381Y-121633714D01*
X104516000Y-121538476D01*
X104563619Y-121490857D01*
X104658857Y-121443238D01*
X104801714Y-121443238D01*
X104896952Y-121490857D01*
X104944571Y-121538476D01*
X104992190Y-121633714D01*
X104992190Y-122014667D01*
X105468381Y-118458476D02*
X105468381Y-119029905D01*
X105468381Y-118744191D02*
X104468381Y-118744191D01*
X104611238Y-118839429D01*
X104706476Y-118934667D01*
X104754095Y-119029905D01*
X104468381Y-117553714D02*
X104468381Y-118029905D01*
X104944571Y-118077524D01*
X104896952Y-118029905D01*
X104849333Y-117934667D01*
X104849333Y-117696571D01*
X104896952Y-117601333D01*
X104944571Y-117553714D01*
X105039810Y-117506095D01*
X105277905Y-117506095D01*
X105373143Y-117553714D01*
X105420762Y-117601333D01*
X105468381Y-117696571D01*
X105468381Y-117934667D01*
X105420762Y-118029905D01*
X105373143Y-118077524D01*
X105468381Y-115918476D02*
X105468381Y-116489905D01*
X105468381Y-116204191D02*
X104468381Y-116204191D01*
X104611238Y-116299429D01*
X104706476Y-116394667D01*
X104754095Y-116489905D01*
X104563619Y-115537524D02*
X104516000Y-115489905D01*
X104468381Y-115394667D01*
X104468381Y-115156571D01*
X104516000Y-115061333D01*
X104563619Y-115013714D01*
X104658857Y-114966095D01*
X104754095Y-114966095D01*
X104896952Y-115013714D01*
X105468381Y-115585143D01*
X105468381Y-114966095D01*
X104563619Y-113473714D02*
X104516000Y-113426095D01*
X104468381Y-113330857D01*
X104468381Y-113092761D01*
X104516000Y-112997523D01*
X104563619Y-112949904D01*
X104658857Y-112902285D01*
X104754095Y-112902285D01*
X104896952Y-112949904D01*
X105468381Y-113521333D01*
X105468381Y-112902285D01*
X104563619Y-111409905D02*
X104516000Y-111362286D01*
X104468381Y-111267048D01*
X104468381Y-111028952D01*
X104516000Y-110933714D01*
X104563619Y-110886095D01*
X104658857Y-110838476D01*
X104754095Y-110838476D01*
X104896952Y-110886095D01*
X105468381Y-111457524D01*
X105468381Y-110838476D01*
X105468381Y-109886095D02*
X105468381Y-110457524D01*
X105468381Y-110171810D02*
X104468381Y-110171810D01*
X104611238Y-110267048D01*
X104706476Y-110362286D01*
X104754095Y-110457524D01*
X105468381Y-108298476D02*
X105468381Y-108869905D01*
X105468381Y-108584191D02*
X104468381Y-108584191D01*
X104611238Y-108679429D01*
X104706476Y-108774667D01*
X104754095Y-108869905D01*
X104468381Y-107441333D02*
X104468381Y-107631810D01*
X104516000Y-107727048D01*
X104563619Y-107774667D01*
X104706476Y-107869905D01*
X104896952Y-107917524D01*
X105277905Y-107917524D01*
X105373143Y-107869905D01*
X105420762Y-107822286D01*
X105468381Y-107727048D01*
X105468381Y-107536571D01*
X105420762Y-107441333D01*
X105373143Y-107393714D01*
X105277905Y-107346095D01*
X105039810Y-107346095D01*
X104944571Y-107393714D01*
X104896952Y-107441333D01*
X104849333Y-107536571D01*
X104849333Y-107727048D01*
X104896952Y-107822286D01*
X104944571Y-107869905D01*
X105039810Y-107917524D01*
X104468381Y-105901333D02*
X104468381Y-105282285D01*
X104849333Y-105615619D01*
X104849333Y-105472761D01*
X104896952Y-105377523D01*
X104944571Y-105329904D01*
X105039810Y-105282285D01*
X105277905Y-105282285D01*
X105373143Y-105329904D01*
X105420762Y-105377523D01*
X105468381Y-105472761D01*
X105468381Y-105758476D01*
X105420762Y-105853714D01*
X105373143Y-105901333D01*
X105468381Y-103218476D02*
X105468381Y-103789905D01*
X105468381Y-103504191D02*
X104468381Y-103504191D01*
X104611238Y-103599429D01*
X104706476Y-103694667D01*
X104754095Y-103789905D01*
X104896952Y-102647048D02*
X104849333Y-102742286D01*
X104801714Y-102789905D01*
X104706476Y-102837524D01*
X104658857Y-102837524D01*
X104563619Y-102789905D01*
X104516000Y-102742286D01*
X104468381Y-102647048D01*
X104468381Y-102456571D01*
X104516000Y-102361333D01*
X104563619Y-102313714D01*
X104658857Y-102266095D01*
X104706476Y-102266095D01*
X104801714Y-102313714D01*
X104849333Y-102361333D01*
X104896952Y-102456571D01*
X104896952Y-102647048D01*
X104944571Y-102742286D01*
X104992190Y-102789905D01*
X105087429Y-102837524D01*
X105277905Y-102837524D01*
X105373143Y-102789905D01*
X105420762Y-102742286D01*
X105468381Y-102647048D01*
X105468381Y-102456571D01*
X105420762Y-102361333D01*
X105373143Y-102313714D01*
X105277905Y-102266095D01*
X105087429Y-102266095D01*
X104992190Y-102313714D01*
X104944571Y-102361333D01*
X104896952Y-102456571D01*
X105468381Y-100678476D02*
X105468381Y-101249905D01*
X105468381Y-100964191D02*
X104468381Y-100964191D01*
X104611238Y-101059429D01*
X104706476Y-101154667D01*
X104754095Y-101249905D01*
X105468381Y-100202286D02*
X105468381Y-100011810D01*
X105420762Y-99916571D01*
X105373143Y-99868952D01*
X105230286Y-99773714D01*
X105039810Y-99726095D01*
X104658857Y-99726095D01*
X104563619Y-99773714D01*
X104516000Y-99821333D01*
X104468381Y-99916571D01*
X104468381Y-100107048D01*
X104516000Y-100202286D01*
X104563619Y-100249905D01*
X104658857Y-100297524D01*
X104896952Y-100297524D01*
X104992190Y-100249905D01*
X105039810Y-100202286D01*
X105087429Y-100107048D01*
X105087429Y-99916571D01*
X105039810Y-99821333D01*
X104992190Y-99773714D01*
X104896952Y-99726095D01*
X104563619Y-98709905D02*
X104516000Y-98662286D01*
X104468381Y-98567048D01*
X104468381Y-98328952D01*
X104516000Y-98233714D01*
X104563619Y-98186095D01*
X104658857Y-98138476D01*
X104754095Y-98138476D01*
X104896952Y-98186095D01*
X105468381Y-98757524D01*
X105468381Y-98138476D01*
X104468381Y-97805143D02*
X104468381Y-97186095D01*
X104849333Y-97519429D01*
X104849333Y-97376571D01*
X104896952Y-97281333D01*
X104944571Y-97233714D01*
X105039810Y-97186095D01*
X105277905Y-97186095D01*
X105373143Y-97233714D01*
X105420762Y-97281333D01*
X105468381Y-97376571D01*
X105468381Y-97662286D01*
X105420762Y-97757524D01*
X105373143Y-97805143D01*
X104516000Y-93629904D02*
X104468381Y-93725142D01*
X104468381Y-93867999D01*
X104516000Y-94010857D01*
X104611238Y-94106095D01*
X104706476Y-94153714D01*
X104896952Y-94201333D01*
X105039810Y-94201333D01*
X105230286Y-94153714D01*
X105325524Y-94106095D01*
X105420762Y-94010857D01*
X105468381Y-93867999D01*
X105468381Y-93772761D01*
X105420762Y-93629904D01*
X105373143Y-93582285D01*
X105039810Y-93582285D01*
X105039810Y-93772761D01*
X105468381Y-93153714D02*
X104468381Y-93153714D01*
X105468381Y-92582285D01*
X104468381Y-92582285D01*
X105468381Y-92106095D02*
X104468381Y-92106095D01*
X104468381Y-91868000D01*
X104516000Y-91725142D01*
X104611238Y-91629904D01*
X104706476Y-91582285D01*
X104896952Y-91534666D01*
X105039810Y-91534666D01*
X105230286Y-91582285D01*
X105325524Y-91629904D01*
X105420762Y-91725142D01*
X105468381Y-91868000D01*
X105468381Y-92106095D01*
D11*
X144224000Y-122998000D02*
X144224000Y-123698000D01*
X143024000Y-123698000D02*
X143024000Y-122998000D01*
X144679000Y-124848000D02*
X146379000Y-124848000D01*
X146379000Y-124848000D02*
X146379000Y-122298000D01*
X144679000Y-124848000D02*
X144679000Y-122298000D01*
X124600000Y-122150000D02*
X124600000Y-122850000D01*
X123400000Y-122850000D02*
X123400000Y-122150000D01*
X122130000Y-103120000D02*
X121430000Y-103120000D01*
X121430000Y-101920000D02*
X122130000Y-101920000D01*
X139652000Y-113346000D02*
X139652000Y-114046000D01*
X138452000Y-114046000D02*
X138452000Y-113346000D01*
X139525000Y-104075000D02*
X139525000Y-104775000D01*
X138325000Y-104775000D02*
X138325000Y-104075000D01*
X137940000Y-97475000D02*
X138640000Y-97475000D01*
X138640000Y-98675000D02*
X137940000Y-98675000D01*
X128415000Y-97475000D02*
X129115000Y-97475000D01*
X129115000Y-98675000D02*
X128415000Y-98675000D01*
X118890000Y-97475000D02*
X119590000Y-97475000D01*
X119590000Y-98675000D02*
X118890000Y-98675000D01*
X141330000Y-126940000D02*
X136130000Y-126940000D01*
X136130000Y-126940000D02*
X136130000Y-129600000D01*
X136130000Y-129600000D02*
X141330000Y-129600000D01*
X141330000Y-129600000D02*
X141330000Y-126940000D01*
X140380000Y-129600000D02*
X140380000Y-135600000D01*
X140380000Y-135600000D02*
X139620000Y-135600000D01*
X139620000Y-135600000D02*
X139620000Y-129600000D01*
X140320000Y-129600000D02*
X140320000Y-135600000D01*
X140200000Y-129600000D02*
X140200000Y-135600000D01*
X140080000Y-129600000D02*
X140080000Y-135600000D01*
X139960000Y-129600000D02*
X139960000Y-135600000D01*
X139840000Y-129600000D02*
X139840000Y-135600000D01*
X139720000Y-129600000D02*
X139720000Y-135600000D01*
X140380000Y-126610000D02*
X140380000Y-126940000D01*
X139620000Y-126610000D02*
X139620000Y-126940000D01*
X138730000Y-126940000D02*
X138730000Y-129600000D01*
X137840000Y-129600000D02*
X137840000Y-135600000D01*
X137840000Y-135600000D02*
X137080000Y-135600000D01*
X137080000Y-135600000D02*
X137080000Y-129600000D01*
X137840000Y-126542929D02*
X137840000Y-126940000D01*
X137080000Y-126542929D02*
X137080000Y-126940000D01*
X140000000Y-124230000D02*
X141270000Y-124230000D01*
X141270000Y-124230000D02*
X141270000Y-125500000D01*
X149440000Y-120670000D02*
X149440000Y-125870000D01*
X149440000Y-125870000D02*
X152100000Y-125870000D01*
X152100000Y-125870000D02*
X152100000Y-120670000D01*
X152100000Y-120670000D02*
X149440000Y-120670000D01*
X152100000Y-121620000D02*
X158100000Y-121620000D01*
X158100000Y-121620000D02*
X158100000Y-122380000D01*
X158100000Y-122380000D02*
X152100000Y-122380000D01*
X152100000Y-121680000D02*
X158100000Y-121680000D01*
X152100000Y-121800000D02*
X158100000Y-121800000D01*
X152100000Y-121920000D02*
X158100000Y-121920000D01*
X152100000Y-122040000D02*
X158100000Y-122040000D01*
X152100000Y-122160000D02*
X158100000Y-122160000D01*
X152100000Y-122280000D02*
X158100000Y-122280000D01*
X149110000Y-121620000D02*
X149440000Y-121620000D01*
X149110000Y-122380000D02*
X149440000Y-122380000D01*
X149440000Y-123270000D02*
X152100000Y-123270000D01*
X152100000Y-124160000D02*
X158100000Y-124160000D01*
X158100000Y-124160000D02*
X158100000Y-124920000D01*
X158100000Y-124920000D02*
X152100000Y-124920000D01*
X149042929Y-124160000D02*
X149440000Y-124160000D01*
X149042929Y-124920000D02*
X149440000Y-124920000D01*
X146730000Y-122000000D02*
X146730000Y-120730000D01*
X146730000Y-120730000D02*
X148000000Y-120730000D01*
X116640000Y-129528000D02*
X121840000Y-129528000D01*
X121840000Y-129528000D02*
X121840000Y-126868000D01*
X121840000Y-126868000D02*
X116640000Y-126868000D01*
X116640000Y-126868000D02*
X116640000Y-129528000D01*
X117590000Y-126868000D02*
X117590000Y-120868000D01*
X117590000Y-120868000D02*
X118350000Y-120868000D01*
X118350000Y-120868000D02*
X118350000Y-126868000D01*
X117650000Y-126868000D02*
X117650000Y-120868000D01*
X117770000Y-126868000D02*
X117770000Y-120868000D01*
X117890000Y-126868000D02*
X117890000Y-120868000D01*
X118010000Y-126868000D02*
X118010000Y-120868000D01*
X118130000Y-126868000D02*
X118130000Y-120868000D01*
X118250000Y-126868000D02*
X118250000Y-120868000D01*
X117590000Y-129858000D02*
X117590000Y-129528000D01*
X118350000Y-129858000D02*
X118350000Y-129528000D01*
X119240000Y-129528000D02*
X119240000Y-126868000D01*
X120130000Y-126868000D02*
X120130000Y-120868000D01*
X120130000Y-120868000D02*
X120890000Y-120868000D01*
X120890000Y-120868000D02*
X120890000Y-126868000D01*
X120130000Y-129925071D02*
X120130000Y-129528000D01*
X120890000Y-129925071D02*
X120890000Y-129528000D01*
X117970000Y-132238000D02*
X116700000Y-132238000D01*
X116700000Y-132238000D02*
X116700000Y-130968000D01*
X145445000Y-111350000D02*
X145445000Y-119090000D01*
X145445000Y-119090000D02*
X148105000Y-119090000D01*
X148105000Y-119090000D02*
X148105000Y-111350000D01*
X148105000Y-111350000D02*
X145445000Y-111350000D01*
X148105000Y-112300000D02*
X154105000Y-112300000D01*
X154105000Y-112300000D02*
X154105000Y-113060000D01*
X154105000Y-113060000D02*
X148105000Y-113060000D01*
X148105000Y-112360000D02*
X154105000Y-112360000D01*
X148105000Y-112480000D02*
X154105000Y-112480000D01*
X148105000Y-112600000D02*
X154105000Y-112600000D01*
X148105000Y-112720000D02*
X154105000Y-112720000D01*
X148105000Y-112840000D02*
X154105000Y-112840000D01*
X148105000Y-112960000D02*
X154105000Y-112960000D01*
X145047929Y-112300000D02*
X145445000Y-112300000D01*
X145047929Y-113060000D02*
X145445000Y-113060000D01*
X142575000Y-112300000D02*
X142962071Y-112300000D01*
X142575000Y-113060000D02*
X142962071Y-113060000D01*
X145445000Y-113950000D02*
X148105000Y-113950000D01*
X148105000Y-114840000D02*
X154105000Y-114840000D01*
X154105000Y-114840000D02*
X154105000Y-115600000D01*
X154105000Y-115600000D02*
X148105000Y-115600000D01*
X145047929Y-114840000D02*
X145445000Y-114840000D01*
X145047929Y-115600000D02*
X145445000Y-115600000D01*
X142507929Y-114840000D02*
X142962071Y-114840000D01*
X142507929Y-115600000D02*
X142962071Y-115600000D01*
X145445000Y-116490000D02*
X148105000Y-116490000D01*
X148105000Y-117380000D02*
X154105000Y-117380000D01*
X154105000Y-117380000D02*
X154105000Y-118140000D01*
X154105000Y-118140000D02*
X148105000Y-118140000D01*
X145047929Y-117380000D02*
X145445000Y-117380000D01*
X145047929Y-118140000D02*
X145445000Y-118140000D01*
X142507929Y-117380000D02*
X142962071Y-117380000D01*
X142507929Y-118140000D02*
X142962071Y-118140000D01*
X140195000Y-112680000D02*
X140195000Y-111410000D01*
X140195000Y-111410000D02*
X141465000Y-111410000D01*
X145445000Y-101825000D02*
X145445000Y-109565000D01*
X145445000Y-109565000D02*
X148105000Y-109565000D01*
X148105000Y-109565000D02*
X148105000Y-101825000D01*
X148105000Y-101825000D02*
X145445000Y-101825000D01*
X148105000Y-102775000D02*
X154105000Y-102775000D01*
X154105000Y-102775000D02*
X154105000Y-103535000D01*
X154105000Y-103535000D02*
X148105000Y-103535000D01*
X148105000Y-102835000D02*
X154105000Y-102835000D01*
X148105000Y-102955000D02*
X154105000Y-102955000D01*
X148105000Y-103075000D02*
X154105000Y-103075000D01*
X148105000Y-103195000D02*
X154105000Y-103195000D01*
X148105000Y-103315000D02*
X154105000Y-103315000D01*
X148105000Y-103435000D02*
X154105000Y-103435000D01*
X145047929Y-102775000D02*
X145445000Y-102775000D01*
X145047929Y-103535000D02*
X145445000Y-103535000D01*
X142575000Y-102775000D02*
X142962071Y-102775000D01*
X142575000Y-103535000D02*
X142962071Y-103535000D01*
X145445000Y-104425000D02*
X148105000Y-104425000D01*
X148105000Y-105315000D02*
X154105000Y-105315000D01*
X154105000Y-105315000D02*
X154105000Y-106075000D01*
X154105000Y-106075000D02*
X148105000Y-106075000D01*
X145047929Y-105315000D02*
X145445000Y-105315000D01*
X145047929Y-106075000D02*
X145445000Y-106075000D01*
X142507929Y-105315000D02*
X142962071Y-105315000D01*
X142507929Y-106075000D02*
X142962071Y-106075000D01*
X145445000Y-106965000D02*
X148105000Y-106965000D01*
X148105000Y-107855000D02*
X154105000Y-107855000D01*
X154105000Y-107855000D02*
X154105000Y-108615000D01*
X154105000Y-108615000D02*
X148105000Y-108615000D01*
X145047929Y-107855000D02*
X145445000Y-107855000D01*
X145047929Y-108615000D02*
X145445000Y-108615000D01*
X142507929Y-107855000D02*
X142962071Y-107855000D01*
X142507929Y-108615000D02*
X142962071Y-108615000D01*
X140195000Y-103155000D02*
X140195000Y-101885000D01*
X140195000Y-101885000D02*
X141465000Y-101885000D01*
X135690000Y-91555000D02*
X143430000Y-91555000D01*
X143430000Y-91555000D02*
X143430000Y-88895000D01*
X143430000Y-88895000D02*
X135690000Y-88895000D01*
X135690000Y-88895000D02*
X135690000Y-91555000D01*
X136640000Y-88895000D02*
X136640000Y-82895000D01*
X136640000Y-82895000D02*
X137400000Y-82895000D01*
X137400000Y-82895000D02*
X137400000Y-88895000D01*
X136700000Y-88895000D02*
X136700000Y-82895000D01*
X136820000Y-88895000D02*
X136820000Y-82895000D01*
X136940000Y-88895000D02*
X136940000Y-82895000D01*
X137060000Y-88895000D02*
X137060000Y-82895000D01*
X137180000Y-88895000D02*
X137180000Y-82895000D01*
X137300000Y-88895000D02*
X137300000Y-82895000D01*
X136640000Y-91952071D02*
X136640000Y-91555000D01*
X137400000Y-91952071D02*
X137400000Y-91555000D01*
X136640000Y-94425000D02*
X136640000Y-94037929D01*
X137400000Y-94425000D02*
X137400000Y-94037929D01*
X138290000Y-91555000D02*
X138290000Y-88895000D01*
X139180000Y-88895000D02*
X139180000Y-82895000D01*
X139180000Y-82895000D02*
X139940000Y-82895000D01*
X139940000Y-82895000D02*
X139940000Y-88895000D01*
X139180000Y-91952071D02*
X139180000Y-91555000D01*
X139940000Y-91952071D02*
X139940000Y-91555000D01*
X139180000Y-94492071D02*
X139180000Y-94037929D01*
X139940000Y-94492071D02*
X139940000Y-94037929D01*
X140830000Y-91555000D02*
X140830000Y-88895000D01*
X141720000Y-88895000D02*
X141720000Y-82895000D01*
X141720000Y-82895000D02*
X142480000Y-82895000D01*
X142480000Y-82895000D02*
X142480000Y-88895000D01*
X141720000Y-91952071D02*
X141720000Y-91555000D01*
X142480000Y-91952071D02*
X142480000Y-91555000D01*
X141720000Y-94492071D02*
X141720000Y-94037929D01*
X142480000Y-94492071D02*
X142480000Y-94037929D01*
X137020000Y-96805000D02*
X135750000Y-96805000D01*
X135750000Y-96805000D02*
X135750000Y-95535000D01*
X126165000Y-91555000D02*
X133905000Y-91555000D01*
X133905000Y-91555000D02*
X133905000Y-88895000D01*
X133905000Y-88895000D02*
X126165000Y-88895000D01*
X126165000Y-88895000D02*
X126165000Y-91555000D01*
X127115000Y-88895000D02*
X127115000Y-82895000D01*
X127115000Y-82895000D02*
X127875000Y-82895000D01*
X127875000Y-82895000D02*
X127875000Y-88895000D01*
X127175000Y-88895000D02*
X127175000Y-82895000D01*
X127295000Y-88895000D02*
X127295000Y-82895000D01*
X127415000Y-88895000D02*
X127415000Y-82895000D01*
X127535000Y-88895000D02*
X127535000Y-82895000D01*
X127655000Y-88895000D02*
X127655000Y-82895000D01*
X127775000Y-88895000D02*
X127775000Y-82895000D01*
X127115000Y-91952071D02*
X127115000Y-91555000D01*
X127875000Y-91952071D02*
X127875000Y-91555000D01*
X127115000Y-94425000D02*
X127115000Y-94037929D01*
X127875000Y-94425000D02*
X127875000Y-94037929D01*
X128765000Y-91555000D02*
X128765000Y-88895000D01*
X129655000Y-88895000D02*
X129655000Y-82895000D01*
X129655000Y-82895000D02*
X130415000Y-82895000D01*
X130415000Y-82895000D02*
X130415000Y-88895000D01*
X129655000Y-91952071D02*
X129655000Y-91555000D01*
X130415000Y-91952071D02*
X130415000Y-91555000D01*
X129655000Y-94492071D02*
X129655000Y-94037929D01*
X130415000Y-94492071D02*
X130415000Y-94037929D01*
X131305000Y-91555000D02*
X131305000Y-88895000D01*
X132195000Y-88895000D02*
X132195000Y-82895000D01*
X132195000Y-82895000D02*
X132955000Y-82895000D01*
X132955000Y-82895000D02*
X132955000Y-88895000D01*
X132195000Y-91952071D02*
X132195000Y-91555000D01*
X132955000Y-91952071D02*
X132955000Y-91555000D01*
X132195000Y-94492071D02*
X132195000Y-94037929D01*
X132955000Y-94492071D02*
X132955000Y-94037929D01*
X127495000Y-96805000D02*
X126225000Y-96805000D01*
X126225000Y-96805000D02*
X126225000Y-95535000D01*
X116640000Y-91555000D02*
X124380000Y-91555000D01*
X124380000Y-91555000D02*
X124380000Y-88895000D01*
X124380000Y-88895000D02*
X116640000Y-88895000D01*
X116640000Y-88895000D02*
X116640000Y-91555000D01*
X117590000Y-88895000D02*
X117590000Y-82895000D01*
X117590000Y-82895000D02*
X118350000Y-82895000D01*
X118350000Y-82895000D02*
X118350000Y-88895000D01*
X117650000Y-88895000D02*
X117650000Y-82895000D01*
X117770000Y-88895000D02*
X117770000Y-82895000D01*
X117890000Y-88895000D02*
X117890000Y-82895000D01*
X118010000Y-88895000D02*
X118010000Y-82895000D01*
X118130000Y-88895000D02*
X118130000Y-82895000D01*
X118250000Y-88895000D02*
X118250000Y-82895000D01*
X117590000Y-91952071D02*
X117590000Y-91555000D01*
X118350000Y-91952071D02*
X118350000Y-91555000D01*
X117590000Y-94425000D02*
X117590000Y-94037929D01*
X118350000Y-94425000D02*
X118350000Y-94037929D01*
X119240000Y-91555000D02*
X119240000Y-88895000D01*
X120130000Y-88895000D02*
X120130000Y-82895000D01*
X120130000Y-82895000D02*
X120890000Y-82895000D01*
X120890000Y-82895000D02*
X120890000Y-88895000D01*
X120130000Y-91952071D02*
X120130000Y-91555000D01*
X120890000Y-91952071D02*
X120890000Y-91555000D01*
X120130000Y-94492071D02*
X120130000Y-94037929D01*
X120890000Y-94492071D02*
X120890000Y-94037929D01*
X121780000Y-91555000D02*
X121780000Y-88895000D01*
X122670000Y-88895000D02*
X122670000Y-82895000D01*
X122670000Y-82895000D02*
X123430000Y-82895000D01*
X123430000Y-82895000D02*
X123430000Y-88895000D01*
X122670000Y-91952071D02*
X122670000Y-91555000D01*
X123430000Y-91952071D02*
X123430000Y-91555000D01*
X122670000Y-94492071D02*
X122670000Y-94037929D01*
X123430000Y-94492071D02*
X123430000Y-94037929D01*
X117970000Y-96805000D02*
X116700000Y-96805000D01*
X116700000Y-96805000D02*
X116700000Y-95535000D01*
D14*
X121272000Y-113696000D02*
X118478000Y-113696000D01*
X121526000Y-113442000D02*
X121526000Y-111918000D01*
X118224000Y-113442000D02*
X118224000Y-111918000D01*
X118478000Y-111664000D02*
X121272000Y-111664000D01*
D11*
X137790000Y-117715000D02*
X138790000Y-117715000D01*
X138790000Y-119075000D02*
X137790000Y-119075000D01*
X138790000Y-117170000D02*
X137790000Y-117170000D01*
X137790000Y-115810000D02*
X138790000Y-115810000D01*
X137790000Y-108190000D02*
X138790000Y-108190000D01*
X138790000Y-109550000D02*
X137790000Y-109550000D01*
X138790000Y-107645000D02*
X137790000Y-107645000D01*
X137790000Y-106285000D02*
X138790000Y-106285000D01*
X142055000Y-99210000D02*
X142055000Y-98210000D01*
X143415000Y-98210000D02*
X143415000Y-99210000D01*
X141510000Y-98210000D02*
X141510000Y-99210000D01*
X140150000Y-99210000D02*
X140150000Y-98210000D01*
X132530000Y-99210000D02*
X132530000Y-98210000D01*
X133890000Y-98210000D02*
X133890000Y-99210000D01*
X131985000Y-98210000D02*
X131985000Y-99210000D01*
X130625000Y-99210000D02*
X130625000Y-98210000D01*
X123005000Y-99210000D02*
X123005000Y-98210000D01*
X124365000Y-98210000D02*
X124365000Y-99210000D01*
X122460000Y-98210000D02*
X122460000Y-99210000D01*
X121100000Y-99210000D02*
X121100000Y-98210000D01*
X114242000Y-129436000D02*
X114242000Y-128436000D01*
X115602000Y-128436000D02*
X115602000Y-129436000D01*
X117290000Y-110005000D02*
X117290000Y-109005000D01*
X118650000Y-109005000D02*
X118650000Y-110005000D01*
X118560000Y-110005000D02*
X118560000Y-109005000D01*
X119920000Y-109005000D02*
X119920000Y-110005000D01*
X127995000Y-103200000D02*
X126995000Y-103200000D01*
X126995000Y-101840000D02*
X127995000Y-101840000D01*
X125635000Y-102020000D02*
X125635000Y-103020000D01*
X124275000Y-103020000D02*
X124275000Y-102020000D01*
X127450000Y-113815000D02*
X127450000Y-112815000D01*
X128810000Y-112815000D02*
X128810000Y-113815000D01*
X127730500Y-115418500D02*
X127730500Y-116418500D01*
X126370500Y-116418500D02*
X126370500Y-115418500D01*
X126143000Y-115418500D02*
X126143000Y-116418500D01*
X124783000Y-116418500D02*
X124783000Y-115418500D01*
X123005000Y-113815000D02*
X123005000Y-112815000D01*
X124365000Y-112815000D02*
X124365000Y-113815000D01*
X124365000Y-115355000D02*
X124365000Y-116355000D01*
X123005000Y-116355000D02*
X123005000Y-115355000D01*
D12*
X147800000Y-89400000D02*
X147800000Y-98600000D01*
X152200000Y-89400000D02*
X152200000Y-98600000D01*
X148200000Y-98600000D02*
X147800000Y-98600000D01*
X151800000Y-98600000D02*
X152200000Y-98600000D01*
X151800000Y-89400000D02*
X152200000Y-89400000D01*
X148200000Y-89400000D02*
X147800000Y-89400000D01*
X152200000Y-94000000D02*
X156200000Y-94000000D01*
X156200000Y-94000000D02*
X156000000Y-93000000D01*
X156000000Y-93000000D02*
X156200000Y-92000000D01*
X152200000Y-92000000D02*
X156200000Y-92000000D01*
D15*
X122072100Y-109880920D02*
X131647900Y-109880920D01*
X131647900Y-105319080D02*
X131647900Y-109880920D01*
X131647900Y-105319080D02*
X122072100Y-105319080D01*
X122072100Y-109880920D02*
X122072100Y-105319080D01*
D16*
X122300700Y-109652320D02*
X131419300Y-109652320D01*
X131419300Y-105547680D02*
X131419300Y-109652320D01*
X131419300Y-105547680D02*
X122300700Y-105547680D01*
X122300700Y-109652320D02*
X122300700Y-105547680D01*
D15*
X123743420Y-108819200D02*
G75*
G03X123743420Y-108819200I-457200J0D01*
G01*
D11*
X107400000Y-88890000D02*
X112600000Y-88890000D01*
X107400000Y-127110000D02*
X112600000Y-127110000D01*
X105960000Y-89460000D02*
X107400000Y-89460000D01*
X107400000Y-88890000D02*
X107400000Y-89460000D01*
X112600000Y-88890000D02*
X112600000Y-89460000D01*
X107400000Y-126540000D02*
X107400000Y-127110000D01*
X112600000Y-126540000D02*
X112600000Y-127110000D01*
X107400000Y-90980000D02*
X107400000Y-92000000D01*
X112600000Y-90980000D02*
X112600000Y-92000000D01*
X107400000Y-93520000D02*
X107400000Y-94540000D01*
X112600000Y-93520000D02*
X112600000Y-94540000D01*
X107400000Y-96060000D02*
X107400000Y-97080000D01*
X112600000Y-96060000D02*
X112600000Y-97080000D01*
X107400000Y-98600000D02*
X107400000Y-99620000D01*
X112600000Y-98600000D02*
X112600000Y-99620000D01*
X107400000Y-101140000D02*
X107400000Y-102160000D01*
X112600000Y-101140000D02*
X112600000Y-102160000D01*
X107400000Y-103680000D02*
X107400000Y-104700000D01*
X112600000Y-103680000D02*
X112600000Y-104700000D01*
X107400000Y-106220000D02*
X107400000Y-107240000D01*
X112600000Y-106220000D02*
X112600000Y-107240000D01*
X107400000Y-108760000D02*
X107400000Y-109780000D01*
X112600000Y-108760000D02*
X112600000Y-109780000D01*
X107400000Y-111300000D02*
X107400000Y-112320000D01*
X112600000Y-111300000D02*
X112600000Y-112320000D01*
X107400000Y-113840000D02*
X107400000Y-114860000D01*
X112600000Y-113840000D02*
X112600000Y-114860000D01*
X107400000Y-116380000D02*
X107400000Y-117400000D01*
X112600000Y-116380000D02*
X112600000Y-117400000D01*
X107400000Y-118920000D02*
X107400000Y-119940000D01*
X112600000Y-118920000D02*
X112600000Y-119940000D01*
X107400000Y-121460000D02*
X107400000Y-122480000D01*
X112600000Y-121460000D02*
X112600000Y-122480000D01*
X107400000Y-124000000D02*
X107400000Y-125020000D01*
X112600000Y-124000000D02*
X112600000Y-125020000D01*
D12*
X143981143Y-121101666D02*
X144028762Y-121149285D01*
X144076381Y-121292142D01*
X144076381Y-121387380D01*
X144028762Y-121530238D01*
X143933524Y-121625476D01*
X143838286Y-121673095D01*
X143647810Y-121720714D01*
X143504952Y-121720714D01*
X143314476Y-121673095D01*
X143219238Y-121625476D01*
X143124000Y-121530238D01*
X143076381Y-121387380D01*
X143076381Y-121292142D01*
X143124000Y-121149285D01*
X143171619Y-121101666D01*
X144076381Y-120149285D02*
X144076381Y-120720714D01*
X144076381Y-120435000D02*
X143076381Y-120435000D01*
X143219238Y-120530238D01*
X143314476Y-120625476D01*
X143362095Y-120720714D01*
X146108381Y-121355595D02*
X145108381Y-121355595D01*
X145108381Y-121117500D01*
X145156000Y-120974642D01*
X145251238Y-120879404D01*
X145346476Y-120831785D01*
X145536952Y-120784166D01*
X145679810Y-120784166D01*
X145870286Y-120831785D01*
X145965524Y-120879404D01*
X146060762Y-120974642D01*
X146108381Y-121117500D01*
X146108381Y-121355595D01*
X146108381Y-119831785D02*
X146108381Y-120403214D01*
X146108381Y-120117500D02*
X145108381Y-120117500D01*
X145251238Y-120212738D01*
X145346476Y-120307976D01*
X145394095Y-120403214D01*
X125857143Y-122666666D02*
X125904762Y-122714285D01*
X125952381Y-122857142D01*
X125952381Y-122952380D01*
X125904762Y-123095238D01*
X125809524Y-123190476D01*
X125714286Y-123238095D01*
X125523810Y-123285714D01*
X125380952Y-123285714D01*
X125190476Y-123238095D01*
X125095238Y-123190476D01*
X125000000Y-123095238D01*
X124952381Y-122952380D01*
X124952381Y-122857142D01*
X125000000Y-122714285D01*
X125047619Y-122666666D01*
X125047619Y-122285714D02*
X125000000Y-122238095D01*
X124952381Y-122142857D01*
X124952381Y-121904761D01*
X125000000Y-121809523D01*
X125047619Y-121761904D01*
X125142857Y-121714285D01*
X125238095Y-121714285D01*
X125380952Y-121761904D01*
X125952381Y-122333333D01*
X125952381Y-121714285D01*
X118755953Y-104274143D02*
X118708334Y-104321762D01*
X118565477Y-104369381D01*
X118470239Y-104369381D01*
X118327381Y-104321762D01*
X118232143Y-104226524D01*
X118184524Y-104131286D01*
X118136905Y-103940810D01*
X118136905Y-103797952D01*
X118184524Y-103607476D01*
X118232143Y-103512238D01*
X118327381Y-103417000D01*
X118470239Y-103369381D01*
X118565477Y-103369381D01*
X118708334Y-103417000D01*
X118755953Y-103464619D01*
X119708334Y-104369381D02*
X119136905Y-104369381D01*
X119422619Y-104369381D02*
X119422619Y-103369381D01*
X119327381Y-103512238D01*
X119232143Y-103607476D01*
X119136905Y-103655095D01*
X120327381Y-103369381D02*
X120422620Y-103369381D01*
X120517858Y-103417000D01*
X120565477Y-103464619D01*
X120613096Y-103559857D01*
X120660715Y-103750333D01*
X120660715Y-103988429D01*
X120613096Y-104178905D01*
X120565477Y-104274143D01*
X120517858Y-104321762D01*
X120422620Y-104369381D01*
X120327381Y-104369381D01*
X120232143Y-104321762D01*
X120184524Y-104274143D01*
X120136905Y-104178905D01*
X120089286Y-103988429D01*
X120089286Y-103750333D01*
X120136905Y-103559857D01*
X120184524Y-103464619D01*
X120232143Y-103417000D01*
X120327381Y-103369381D01*
X121279762Y-103369381D02*
X121375001Y-103369381D01*
X121470239Y-103417000D01*
X121517858Y-103464619D01*
X121565477Y-103559857D01*
X121613096Y-103750333D01*
X121613096Y-103988429D01*
X121565477Y-104178905D01*
X121517858Y-104274143D01*
X121470239Y-104321762D01*
X121375001Y-104369381D01*
X121279762Y-104369381D01*
X121184524Y-104321762D01*
X121136905Y-104274143D01*
X121089286Y-104178905D01*
X121041667Y-103988429D01*
X121041667Y-103750333D01*
X121089286Y-103559857D01*
X121136905Y-103464619D01*
X121184524Y-103417000D01*
X121279762Y-103369381D01*
X138088343Y-113392647D02*
X138135962Y-113440266D01*
X138183581Y-113583123D01*
X138183581Y-113678361D01*
X138135962Y-113821219D01*
X138040724Y-113916457D01*
X137945486Y-113964076D01*
X137755010Y-114011695D01*
X137612152Y-114011695D01*
X137421676Y-113964076D01*
X137326438Y-113916457D01*
X137231200Y-113821219D01*
X137183581Y-113678361D01*
X137183581Y-113583123D01*
X137231200Y-113440266D01*
X137278819Y-113392647D01*
X138183581Y-112440266D02*
X138183581Y-113011695D01*
X138183581Y-112725981D02*
X137183581Y-112725981D01*
X137326438Y-112821219D01*
X137421676Y-112916457D01*
X137469295Y-113011695D01*
X137183581Y-111821219D02*
X137183581Y-111725980D01*
X137231200Y-111630742D01*
X137278819Y-111583123D01*
X137374057Y-111535504D01*
X137564533Y-111487885D01*
X137802629Y-111487885D01*
X137993105Y-111535504D01*
X138088343Y-111583123D01*
X138135962Y-111630742D01*
X138183581Y-111725980D01*
X138183581Y-111821219D01*
X138135962Y-111916457D01*
X138088343Y-111964076D01*
X137993105Y-112011695D01*
X137802629Y-112059314D01*
X137564533Y-112059314D01*
X137374057Y-112011695D01*
X137278819Y-111964076D01*
X137231200Y-111916457D01*
X137183581Y-111821219D01*
X138183581Y-110535504D02*
X138183581Y-111106933D01*
X138183581Y-110821219D02*
X137183581Y-110821219D01*
X137326438Y-110916457D01*
X137421676Y-111011695D01*
X137469295Y-111106933D01*
X137782143Y-105544047D02*
X137829762Y-105591666D01*
X137877381Y-105734523D01*
X137877381Y-105829761D01*
X137829762Y-105972619D01*
X137734524Y-106067857D01*
X137639286Y-106115476D01*
X137448810Y-106163095D01*
X137305952Y-106163095D01*
X137115476Y-106115476D01*
X137020238Y-106067857D01*
X136925000Y-105972619D01*
X136877381Y-105829761D01*
X136877381Y-105734523D01*
X136925000Y-105591666D01*
X136972619Y-105544047D01*
X137877381Y-104591666D02*
X137877381Y-105163095D01*
X137877381Y-104877381D02*
X136877381Y-104877381D01*
X137020238Y-104972619D01*
X137115476Y-105067857D01*
X137163095Y-105163095D01*
X136877381Y-103972619D02*
X136877381Y-103877380D01*
X136925000Y-103782142D01*
X136972619Y-103734523D01*
X137067857Y-103686904D01*
X137258333Y-103639285D01*
X137496429Y-103639285D01*
X137686905Y-103686904D01*
X137782143Y-103734523D01*
X137829762Y-103782142D01*
X137877381Y-103877380D01*
X137877381Y-103972619D01*
X137829762Y-104067857D01*
X137782143Y-104115476D01*
X137686905Y-104163095D01*
X137496429Y-104210714D01*
X137258333Y-104210714D01*
X137067857Y-104163095D01*
X136972619Y-104115476D01*
X136925000Y-104067857D01*
X136877381Y-103972619D01*
X136972619Y-103258333D02*
X136925000Y-103210714D01*
X136877381Y-103115476D01*
X136877381Y-102877380D01*
X136925000Y-102782142D01*
X136972619Y-102734523D01*
X137067857Y-102686904D01*
X137163095Y-102686904D01*
X137305952Y-102734523D01*
X137877381Y-103305952D01*
X137877381Y-102686904D01*
X137170953Y-99932143D02*
X137123334Y-99979762D01*
X136980477Y-100027381D01*
X136885239Y-100027381D01*
X136742381Y-99979762D01*
X136647143Y-99884524D01*
X136599524Y-99789286D01*
X136551905Y-99598810D01*
X136551905Y-99455952D01*
X136599524Y-99265476D01*
X136647143Y-99170238D01*
X136742381Y-99075000D01*
X136885239Y-99027381D01*
X136980477Y-99027381D01*
X137123334Y-99075000D01*
X137170953Y-99122619D01*
X138123334Y-100027381D02*
X137551905Y-100027381D01*
X137837619Y-100027381D02*
X137837619Y-99027381D01*
X137742381Y-99170238D01*
X137647143Y-99265476D01*
X137551905Y-99313095D01*
X138742381Y-99027381D02*
X138837620Y-99027381D01*
X138932858Y-99075000D01*
X138980477Y-99122619D01*
X139028096Y-99217857D01*
X139075715Y-99408333D01*
X139075715Y-99646429D01*
X139028096Y-99836905D01*
X138980477Y-99932143D01*
X138932858Y-99979762D01*
X138837620Y-100027381D01*
X138742381Y-100027381D01*
X138647143Y-99979762D01*
X138599524Y-99932143D01*
X138551905Y-99836905D01*
X138504286Y-99646429D01*
X138504286Y-99408333D01*
X138551905Y-99217857D01*
X138599524Y-99122619D01*
X138647143Y-99075000D01*
X138742381Y-99027381D01*
X139409048Y-99027381D02*
X140028096Y-99027381D01*
X139694762Y-99408333D01*
X139837620Y-99408333D01*
X139932858Y-99455952D01*
X139980477Y-99503571D01*
X140028096Y-99598810D01*
X140028096Y-99836905D01*
X139980477Y-99932143D01*
X139932858Y-99979762D01*
X139837620Y-100027381D01*
X139551905Y-100027381D01*
X139456667Y-99979762D01*
X139409048Y-99932143D01*
X127645953Y-99932143D02*
X127598334Y-99979762D01*
X127455477Y-100027381D01*
X127360239Y-100027381D01*
X127217381Y-99979762D01*
X127122143Y-99884524D01*
X127074524Y-99789286D01*
X127026905Y-99598810D01*
X127026905Y-99455952D01*
X127074524Y-99265476D01*
X127122143Y-99170238D01*
X127217381Y-99075000D01*
X127360239Y-99027381D01*
X127455477Y-99027381D01*
X127598334Y-99075000D01*
X127645953Y-99122619D01*
X128598334Y-100027381D02*
X128026905Y-100027381D01*
X128312619Y-100027381D02*
X128312619Y-99027381D01*
X128217381Y-99170238D01*
X128122143Y-99265476D01*
X128026905Y-99313095D01*
X129217381Y-99027381D02*
X129312620Y-99027381D01*
X129407858Y-99075000D01*
X129455477Y-99122619D01*
X129503096Y-99217857D01*
X129550715Y-99408333D01*
X129550715Y-99646429D01*
X129503096Y-99836905D01*
X129455477Y-99932143D01*
X129407858Y-99979762D01*
X129312620Y-100027381D01*
X129217381Y-100027381D01*
X129122143Y-99979762D01*
X129074524Y-99932143D01*
X129026905Y-99836905D01*
X128979286Y-99646429D01*
X128979286Y-99408333D01*
X129026905Y-99217857D01*
X129074524Y-99122619D01*
X129122143Y-99075000D01*
X129217381Y-99027381D01*
X130407858Y-99360714D02*
X130407858Y-100027381D01*
X130169762Y-98979762D02*
X129931667Y-99694048D01*
X130550715Y-99694048D01*
D10*
X118090762Y-99440214D02*
X118052667Y-99478310D01*
X117938381Y-99516405D01*
X117862191Y-99516405D01*
X117747905Y-99478310D01*
X117671714Y-99402119D01*
X117633619Y-99325929D01*
X117595524Y-99173548D01*
X117595524Y-99059262D01*
X117633619Y-98906881D01*
X117671714Y-98830690D01*
X117747905Y-98754500D01*
X117862191Y-98716405D01*
X117938381Y-98716405D01*
X118052667Y-98754500D01*
X118090762Y-98792595D01*
X118852667Y-99516405D02*
X118395524Y-99516405D01*
X118624095Y-99516405D02*
X118624095Y-98716405D01*
X118547905Y-98830690D01*
X118471714Y-98906881D01*
X118395524Y-98944976D01*
X119347905Y-98716405D02*
X119424096Y-98716405D01*
X119500286Y-98754500D01*
X119538381Y-98792595D01*
X119576477Y-98868786D01*
X119614572Y-99021167D01*
X119614572Y-99211643D01*
X119576477Y-99364024D01*
X119538381Y-99440214D01*
X119500286Y-99478310D01*
X119424096Y-99516405D01*
X119347905Y-99516405D01*
X119271715Y-99478310D01*
X119233619Y-99440214D01*
X119195524Y-99364024D01*
X119157429Y-99211643D01*
X119157429Y-99021167D01*
X119195524Y-98868786D01*
X119233619Y-98792595D01*
X119271715Y-98754500D01*
X119347905Y-98716405D01*
X120338382Y-98716405D02*
X119957429Y-98716405D01*
X119919334Y-99097357D01*
X119957429Y-99059262D01*
X120033620Y-99021167D01*
X120224096Y-99021167D01*
X120300286Y-99059262D01*
X120338382Y-99097357D01*
X120376477Y-99173548D01*
X120376477Y-99364024D01*
X120338382Y-99440214D01*
X120300286Y-99478310D01*
X120224096Y-99516405D01*
X120033620Y-99516405D01*
X119957429Y-99478310D01*
X119919334Y-99440214D01*
D12*
X139258477Y-122189381D02*
X139258477Y-122903667D01*
X139210857Y-123046524D01*
X139115619Y-123141762D01*
X138972762Y-123189381D01*
X138877524Y-123189381D01*
X140258477Y-123189381D02*
X139687048Y-123189381D01*
X139972762Y-123189381D02*
X139972762Y-122189381D01*
X139877524Y-122332238D01*
X139782286Y-122427476D01*
X139687048Y-122475095D01*
X141210858Y-123189381D02*
X140639429Y-123189381D01*
X140925143Y-123189381D02*
X140925143Y-122189381D01*
X140829905Y-122332238D01*
X140734667Y-122427476D01*
X140639429Y-122475095D01*
X148156381Y-127840523D02*
X148870667Y-127840523D01*
X149013524Y-127888143D01*
X149108762Y-127983381D01*
X149156381Y-128126238D01*
X149156381Y-128221476D01*
X149156381Y-126840523D02*
X149156381Y-127411952D01*
X149156381Y-127126238D02*
X148156381Y-127126238D01*
X148299238Y-127221476D01*
X148394476Y-127316714D01*
X148442095Y-127411952D01*
X148251619Y-126459571D02*
X148204000Y-126411952D01*
X148156381Y-126316714D01*
X148156381Y-126078618D01*
X148204000Y-125983380D01*
X148251619Y-125935761D01*
X148346857Y-125888142D01*
X148442095Y-125888142D01*
X148584952Y-125935761D01*
X149156381Y-126507190D01*
X149156381Y-125888142D01*
X122502381Y-131269523D02*
X123216667Y-131269523D01*
X123359524Y-131317143D01*
X123454762Y-131412381D01*
X123502381Y-131555238D01*
X123502381Y-131650476D01*
X122597619Y-130840952D02*
X122550000Y-130793333D01*
X122502381Y-130698095D01*
X122502381Y-130459999D01*
X122550000Y-130364761D01*
X122597619Y-130317142D01*
X122692857Y-130269523D01*
X122788095Y-130269523D01*
X122930952Y-130317142D01*
X123502381Y-130888571D01*
X123502381Y-130269523D01*
X122502381Y-129650476D02*
X122502381Y-129555237D01*
X122550000Y-129459999D01*
X122597619Y-129412380D01*
X122692857Y-129364761D01*
X122883333Y-129317142D01*
X123121429Y-129317142D01*
X123311905Y-129364761D01*
X123407143Y-129412380D01*
X123454762Y-129459999D01*
X123502381Y-129555237D01*
X123502381Y-129650476D01*
X123454762Y-129745714D01*
X123407143Y-129793333D01*
X123311905Y-129840952D01*
X123121429Y-129888571D01*
X122883333Y-129888571D01*
X122692857Y-129840952D01*
X122597619Y-129793333D01*
X122550000Y-129745714D01*
X122502381Y-129650476D01*
X144084477Y-110227381D02*
X144084477Y-110941667D01*
X144036857Y-111084524D01*
X143941619Y-111179762D01*
X143798762Y-111227381D01*
X143703524Y-111227381D01*
X144465429Y-110227381D02*
X145084477Y-110227381D01*
X144751143Y-110608333D01*
X144894001Y-110608333D01*
X144989239Y-110655952D01*
X145036858Y-110703571D01*
X145084477Y-110798810D01*
X145084477Y-111036905D01*
X145036858Y-111132143D01*
X144989239Y-111179762D01*
X144894001Y-111227381D01*
X144608286Y-111227381D01*
X144513048Y-111179762D01*
X144465429Y-111132143D01*
X146036858Y-111227381D02*
X145465429Y-111227381D01*
X145751143Y-111227381D02*
X145751143Y-110227381D01*
X145655905Y-110370238D01*
X145560667Y-110465476D01*
X145465429Y-110513095D01*
X144338477Y-100448381D02*
X144338477Y-101162667D01*
X144290857Y-101305524D01*
X144195619Y-101400762D01*
X144052762Y-101448381D01*
X143957524Y-101448381D01*
X144719429Y-100448381D02*
X145338477Y-100448381D01*
X145005143Y-100829333D01*
X145148001Y-100829333D01*
X145243239Y-100876952D01*
X145290858Y-100924571D01*
X145338477Y-101019810D01*
X145338477Y-101257905D01*
X145290858Y-101353143D01*
X145243239Y-101400762D01*
X145148001Y-101448381D01*
X144862286Y-101448381D01*
X144767048Y-101400762D01*
X144719429Y-101353143D01*
X145719429Y-100543619D02*
X145767048Y-100496000D01*
X145862286Y-100448381D01*
X146100382Y-100448381D01*
X146195620Y-100496000D01*
X146243239Y-100543619D01*
X146290858Y-100638857D01*
X146290858Y-100734095D01*
X146243239Y-100876952D01*
X145671810Y-101448381D01*
X146290858Y-101448381D01*
X143330381Y-95328523D02*
X144044667Y-95328523D01*
X144187524Y-95376143D01*
X144282762Y-95471381D01*
X144330381Y-95614238D01*
X144330381Y-95709476D01*
X143330381Y-94947571D02*
X143330381Y-94328523D01*
X143711333Y-94661857D01*
X143711333Y-94518999D01*
X143758952Y-94423761D01*
X143806571Y-94376142D01*
X143901810Y-94328523D01*
X144139905Y-94328523D01*
X144235143Y-94376142D01*
X144282762Y-94423761D01*
X144330381Y-94518999D01*
X144330381Y-94804714D01*
X144282762Y-94899952D01*
X144235143Y-94947571D01*
X143330381Y-93995190D02*
X143330381Y-93376142D01*
X143711333Y-93709476D01*
X143711333Y-93566618D01*
X143758952Y-93471380D01*
X143806571Y-93423761D01*
X143901810Y-93376142D01*
X144139905Y-93376142D01*
X144235143Y-93423761D01*
X144282762Y-93471380D01*
X144330381Y-93566618D01*
X144330381Y-93852333D01*
X144282762Y-93947571D01*
X144235143Y-93995190D01*
X133805381Y-95201523D02*
X134519667Y-95201523D01*
X134662524Y-95249143D01*
X134757762Y-95344381D01*
X134805381Y-95487238D01*
X134805381Y-95582476D01*
X133805381Y-94820571D02*
X133805381Y-94201523D01*
X134186333Y-94534857D01*
X134186333Y-94391999D01*
X134233952Y-94296761D01*
X134281571Y-94249142D01*
X134376810Y-94201523D01*
X134614905Y-94201523D01*
X134710143Y-94249142D01*
X134757762Y-94296761D01*
X134805381Y-94391999D01*
X134805381Y-94677714D01*
X134757762Y-94772952D01*
X134710143Y-94820571D01*
X134138714Y-93344380D02*
X134805381Y-93344380D01*
X133757762Y-93582476D02*
X134472048Y-93820571D01*
X134472048Y-93201523D01*
X124407381Y-95201523D02*
X125121667Y-95201523D01*
X125264524Y-95249143D01*
X125359762Y-95344381D01*
X125407381Y-95487238D01*
X125407381Y-95582476D01*
X124407381Y-94820571D02*
X124407381Y-94201523D01*
X124788333Y-94534857D01*
X124788333Y-94391999D01*
X124835952Y-94296761D01*
X124883571Y-94249142D01*
X124978810Y-94201523D01*
X125216905Y-94201523D01*
X125312143Y-94249142D01*
X125359762Y-94296761D01*
X125407381Y-94391999D01*
X125407381Y-94677714D01*
X125359762Y-94772952D01*
X125312143Y-94820571D01*
X124407381Y-93296761D02*
X124407381Y-93772952D01*
X124883571Y-93820571D01*
X124835952Y-93772952D01*
X124788333Y-93677714D01*
X124788333Y-93439618D01*
X124835952Y-93344380D01*
X124883571Y-93296761D01*
X124978810Y-93249142D01*
X125216905Y-93249142D01*
X125312143Y-93296761D01*
X125359762Y-93344380D01*
X125407381Y-93439618D01*
X125407381Y-93677714D01*
X125359762Y-93772952D01*
X125312143Y-93820571D01*
D17*
X118106072Y-114330395D02*
X118106072Y-114910967D01*
X118067368Y-115027081D01*
X117989958Y-115104490D01*
X117873844Y-115143195D01*
X117796434Y-115143195D01*
X118493120Y-115143195D02*
X118493120Y-114330395D01*
X118802758Y-114330395D01*
X118880167Y-114369100D01*
X118918872Y-114407805D01*
X118957577Y-114485214D01*
X118957577Y-114601329D01*
X118918872Y-114678738D01*
X118880167Y-114717443D01*
X118802758Y-114756148D01*
X118493120Y-114756148D01*
X119731672Y-115143195D02*
X119267215Y-115143195D01*
X119499444Y-115143195D02*
X119499444Y-114330395D01*
X119422034Y-114446510D01*
X119344625Y-114523919D01*
X119267215Y-114562624D01*
X120234834Y-114330395D02*
X120312243Y-114330395D01*
X120389653Y-114369100D01*
X120428358Y-114407805D01*
X120467062Y-114485214D01*
X120505767Y-114640033D01*
X120505767Y-114833557D01*
X120467062Y-114988376D01*
X120428358Y-115065786D01*
X120389653Y-115104490D01*
X120312243Y-115143195D01*
X120234834Y-115143195D01*
X120157424Y-115104490D01*
X120118720Y-115065786D01*
X120080015Y-114988376D01*
X120041310Y-114833557D01*
X120041310Y-114640033D01*
X120080015Y-114485214D01*
X120118720Y-114407805D01*
X120157424Y-114369100D01*
X120234834Y-114330395D01*
X121241157Y-114330395D02*
X120854110Y-114330395D01*
X120815405Y-114717443D01*
X120854110Y-114678738D01*
X120931519Y-114640033D01*
X121125043Y-114640033D01*
X121202453Y-114678738D01*
X121241157Y-114717443D01*
X121279862Y-114794852D01*
X121279862Y-114988376D01*
X121241157Y-115065786D01*
X121202453Y-115104490D01*
X121125043Y-115143195D01*
X120931519Y-115143195D01*
X120854110Y-115104490D01*
X120815405Y-115065786D01*
D12*
X135583334Y-118847381D02*
X135250000Y-118371190D01*
X135011905Y-118847381D02*
X135011905Y-117847381D01*
X135392858Y-117847381D01*
X135488096Y-117895000D01*
X135535715Y-117942619D01*
X135583334Y-118037857D01*
X135583334Y-118180714D01*
X135535715Y-118275952D01*
X135488096Y-118323571D01*
X135392858Y-118371190D01*
X135011905Y-118371190D01*
X136535715Y-118847381D02*
X135964286Y-118847381D01*
X136250000Y-118847381D02*
X136250000Y-117847381D01*
X136154762Y-117990238D01*
X136059524Y-118085476D01*
X135964286Y-118133095D01*
X135583334Y-116942381D02*
X135250000Y-116466190D01*
X135011905Y-116942381D02*
X135011905Y-115942381D01*
X135392858Y-115942381D01*
X135488096Y-115990000D01*
X135535715Y-116037619D01*
X135583334Y-116132857D01*
X135583334Y-116275714D01*
X135535715Y-116370952D01*
X135488096Y-116418571D01*
X135392858Y-116466190D01*
X135011905Y-116466190D01*
X135964286Y-116037619D02*
X136011905Y-115990000D01*
X136107143Y-115942381D01*
X136345239Y-115942381D01*
X136440477Y-115990000D01*
X136488096Y-116037619D01*
X136535715Y-116132857D01*
X136535715Y-116228095D01*
X136488096Y-116370952D01*
X135916667Y-116942381D01*
X136535715Y-116942381D01*
X135583334Y-109322381D02*
X135250000Y-108846190D01*
X135011905Y-109322381D02*
X135011905Y-108322381D01*
X135392858Y-108322381D01*
X135488096Y-108370000D01*
X135535715Y-108417619D01*
X135583334Y-108512857D01*
X135583334Y-108655714D01*
X135535715Y-108750952D01*
X135488096Y-108798571D01*
X135392858Y-108846190D01*
X135011905Y-108846190D01*
X135916667Y-108322381D02*
X136535715Y-108322381D01*
X136202381Y-108703333D01*
X136345239Y-108703333D01*
X136440477Y-108750952D01*
X136488096Y-108798571D01*
X136535715Y-108893810D01*
X136535715Y-109131905D01*
X136488096Y-109227143D01*
X136440477Y-109274762D01*
X136345239Y-109322381D01*
X136059524Y-109322381D01*
X135964286Y-109274762D01*
X135916667Y-109227143D01*
X135583334Y-107417381D02*
X135250000Y-106941190D01*
X135011905Y-107417381D02*
X135011905Y-106417381D01*
X135392858Y-106417381D01*
X135488096Y-106465000D01*
X135535715Y-106512619D01*
X135583334Y-106607857D01*
X135583334Y-106750714D01*
X135535715Y-106845952D01*
X135488096Y-106893571D01*
X135392858Y-106941190D01*
X135011905Y-106941190D01*
X136440477Y-106750714D02*
X136440477Y-107417381D01*
X136202381Y-106369762D02*
X135964286Y-107084048D01*
X136583334Y-107084048D01*
X143314381Y-101162666D02*
X142838190Y-101496000D01*
X143314381Y-101734095D02*
X142314381Y-101734095D01*
X142314381Y-101353142D01*
X142362000Y-101257904D01*
X142409619Y-101210285D01*
X142504857Y-101162666D01*
X142647714Y-101162666D01*
X142742952Y-101210285D01*
X142790571Y-101257904D01*
X142838190Y-101353142D01*
X142838190Y-101734095D01*
X142314381Y-100257904D02*
X142314381Y-100734095D01*
X142790571Y-100781714D01*
X142742952Y-100734095D01*
X142695333Y-100638857D01*
X142695333Y-100400761D01*
X142742952Y-100305523D01*
X142790571Y-100257904D01*
X142885810Y-100210285D01*
X143123905Y-100210285D01*
X143219143Y-100257904D01*
X143266762Y-100305523D01*
X143314381Y-100400761D01*
X143314381Y-100638857D01*
X143266762Y-100734095D01*
X143219143Y-100781714D01*
X141345881Y-101099166D02*
X140869690Y-101432500D01*
X141345881Y-101670595D02*
X140345881Y-101670595D01*
X140345881Y-101289642D01*
X140393500Y-101194404D01*
X140441119Y-101146785D01*
X140536357Y-101099166D01*
X140679214Y-101099166D01*
X140774452Y-101146785D01*
X140822071Y-101194404D01*
X140869690Y-101289642D01*
X140869690Y-101670595D01*
X140345881Y-100242023D02*
X140345881Y-100432500D01*
X140393500Y-100527738D01*
X140441119Y-100575357D01*
X140583976Y-100670595D01*
X140774452Y-100718214D01*
X141155405Y-100718214D01*
X141250643Y-100670595D01*
X141298262Y-100622976D01*
X141345881Y-100527738D01*
X141345881Y-100337261D01*
X141298262Y-100242023D01*
X141250643Y-100194404D01*
X141155405Y-100146785D01*
X140917310Y-100146785D01*
X140822071Y-100194404D01*
X140774452Y-100242023D01*
X140726833Y-100337261D01*
X140726833Y-100527738D01*
X140774452Y-100622976D01*
X140822071Y-100670595D01*
X140917310Y-100718214D01*
X133662381Y-101416666D02*
X133186190Y-101750000D01*
X133662381Y-101988095D02*
X132662381Y-101988095D01*
X132662381Y-101607142D01*
X132710000Y-101511904D01*
X132757619Y-101464285D01*
X132852857Y-101416666D01*
X132995714Y-101416666D01*
X133090952Y-101464285D01*
X133138571Y-101511904D01*
X133186190Y-101607142D01*
X133186190Y-101988095D01*
X132662381Y-101083333D02*
X132662381Y-100416666D01*
X133662381Y-100845238D01*
X131757381Y-101416666D02*
X131281190Y-101750000D01*
X131757381Y-101988095D02*
X130757381Y-101988095D01*
X130757381Y-101607142D01*
X130805000Y-101511904D01*
X130852619Y-101464285D01*
X130947857Y-101416666D01*
X131090714Y-101416666D01*
X131185952Y-101464285D01*
X131233571Y-101511904D01*
X131281190Y-101607142D01*
X131281190Y-101988095D01*
X131185952Y-100845238D02*
X131138333Y-100940476D01*
X131090714Y-100988095D01*
X130995476Y-101035714D01*
X130947857Y-101035714D01*
X130852619Y-100988095D01*
X130805000Y-100940476D01*
X130757381Y-100845238D01*
X130757381Y-100654761D01*
X130805000Y-100559523D01*
X130852619Y-100511904D01*
X130947857Y-100464285D01*
X130995476Y-100464285D01*
X131090714Y-100511904D01*
X131138333Y-100559523D01*
X131185952Y-100654761D01*
X131185952Y-100845238D01*
X131233571Y-100940476D01*
X131281190Y-100988095D01*
X131376429Y-101035714D01*
X131566905Y-101035714D01*
X131662143Y-100988095D01*
X131709762Y-100940476D01*
X131757381Y-100845238D01*
X131757381Y-100654761D01*
X131709762Y-100559523D01*
X131662143Y-100511904D01*
X131566905Y-100464285D01*
X131376429Y-100464285D01*
X131281190Y-100511904D01*
X131233571Y-100559523D01*
X131185952Y-100654761D01*
D10*
X125380405Y-98843333D02*
X124999452Y-99110000D01*
X125380405Y-99300476D02*
X124580405Y-99300476D01*
X124580405Y-98995714D01*
X124618500Y-98919523D01*
X124656595Y-98881428D01*
X124732786Y-98843333D01*
X124847071Y-98843333D01*
X124923262Y-98881428D01*
X124961357Y-98919523D01*
X124999452Y-98995714D01*
X124999452Y-99300476D01*
X125380405Y-98462381D02*
X125380405Y-98310000D01*
X125342310Y-98233809D01*
X125304214Y-98195714D01*
X125189929Y-98119523D01*
X125037548Y-98081428D01*
X124732786Y-98081428D01*
X124656595Y-98119523D01*
X124618500Y-98157619D01*
X124580405Y-98233809D01*
X124580405Y-98386190D01*
X124618500Y-98462381D01*
X124656595Y-98500476D01*
X124732786Y-98538571D01*
X124923262Y-98538571D01*
X124999452Y-98500476D01*
X125037548Y-98462381D01*
X125075643Y-98386190D01*
X125075643Y-98233809D01*
X125037548Y-98157619D01*
X124999452Y-98119523D01*
X124923262Y-98081428D01*
X121062405Y-101129286D02*
X120681452Y-101395953D01*
X121062405Y-101586429D02*
X120262405Y-101586429D01*
X120262405Y-101281667D01*
X120300500Y-101205476D01*
X120338595Y-101167381D01*
X120414786Y-101129286D01*
X120529071Y-101129286D01*
X120605262Y-101167381D01*
X120643357Y-101205476D01*
X120681452Y-101281667D01*
X120681452Y-101586429D01*
X121062405Y-100367381D02*
X121062405Y-100824524D01*
X121062405Y-100595953D02*
X120262405Y-100595953D01*
X120376690Y-100672143D01*
X120452881Y-100748334D01*
X120490976Y-100824524D01*
X120262405Y-99872143D02*
X120262405Y-99795952D01*
X120300500Y-99719762D01*
X120338595Y-99681667D01*
X120414786Y-99643571D01*
X120567167Y-99605476D01*
X120757643Y-99605476D01*
X120910024Y-99643571D01*
X120986214Y-99681667D01*
X121024310Y-99719762D01*
X121062405Y-99795952D01*
X121062405Y-99872143D01*
X121024310Y-99948333D01*
X120986214Y-99986429D01*
X120910024Y-100024524D01*
X120757643Y-100062619D01*
X120567167Y-100062619D01*
X120414786Y-100024524D01*
X120338595Y-99986429D01*
X120300500Y-99948333D01*
X120262405Y-99872143D01*
D12*
X113850381Y-129578857D02*
X113374190Y-129912191D01*
X113850381Y-130150286D02*
X112850381Y-130150286D01*
X112850381Y-129769333D01*
X112898000Y-129674095D01*
X112945619Y-129626476D01*
X113040857Y-129578857D01*
X113183714Y-129578857D01*
X113278952Y-129626476D01*
X113326571Y-129674095D01*
X113374190Y-129769333D01*
X113374190Y-130150286D01*
X113850381Y-128626476D02*
X113850381Y-129197905D01*
X113850381Y-128912191D02*
X112850381Y-128912191D01*
X112993238Y-129007429D01*
X113088476Y-129102667D01*
X113136095Y-129197905D01*
X112850381Y-128293143D02*
X112850381Y-127626476D01*
X113850381Y-128055048D01*
X118485881Y-107353857D02*
X118009690Y-107687191D01*
X118485881Y-107925286D02*
X117485881Y-107925286D01*
X117485881Y-107544333D01*
X117533500Y-107449095D01*
X117581119Y-107401476D01*
X117676357Y-107353857D01*
X117819214Y-107353857D01*
X117914452Y-107401476D01*
X117962071Y-107449095D01*
X118009690Y-107544333D01*
X118009690Y-107925286D01*
X117581119Y-106972905D02*
X117533500Y-106925286D01*
X117485881Y-106830048D01*
X117485881Y-106591952D01*
X117533500Y-106496714D01*
X117581119Y-106449095D01*
X117676357Y-106401476D01*
X117771595Y-106401476D01*
X117914452Y-106449095D01*
X118485881Y-107020524D01*
X118485881Y-106401476D01*
X118485881Y-105449095D02*
X118485881Y-106020524D01*
X118485881Y-105734810D02*
X117485881Y-105734810D01*
X117628738Y-105830048D01*
X117723976Y-105925286D01*
X117771595Y-106020524D01*
X119692381Y-107353857D02*
X119216190Y-107687191D01*
X119692381Y-107925286D02*
X118692381Y-107925286D01*
X118692381Y-107544333D01*
X118740000Y-107449095D01*
X118787619Y-107401476D01*
X118882857Y-107353857D01*
X119025714Y-107353857D01*
X119120952Y-107401476D01*
X119168571Y-107449095D01*
X119216190Y-107544333D01*
X119216190Y-107925286D01*
X118787619Y-106972905D02*
X118740000Y-106925286D01*
X118692381Y-106830048D01*
X118692381Y-106591952D01*
X118740000Y-106496714D01*
X118787619Y-106449095D01*
X118882857Y-106401476D01*
X118978095Y-106401476D01*
X119120952Y-106449095D01*
X119692381Y-107020524D01*
X119692381Y-106401476D01*
X118787619Y-106020524D02*
X118740000Y-105972905D01*
X118692381Y-105877667D01*
X118692381Y-105639571D01*
X118740000Y-105544333D01*
X118787619Y-105496714D01*
X118882857Y-105449095D01*
X118978095Y-105449095D01*
X119120952Y-105496714D01*
X119692381Y-106068143D01*
X119692381Y-105449095D01*
X126852143Y-101522381D02*
X126518809Y-101046190D01*
X126280714Y-101522381D02*
X126280714Y-100522381D01*
X126661667Y-100522381D01*
X126756905Y-100570000D01*
X126804524Y-100617619D01*
X126852143Y-100712857D01*
X126852143Y-100855714D01*
X126804524Y-100950952D01*
X126756905Y-100998571D01*
X126661667Y-101046190D01*
X126280714Y-101046190D01*
X127233095Y-100617619D02*
X127280714Y-100570000D01*
X127375952Y-100522381D01*
X127614048Y-100522381D01*
X127709286Y-100570000D01*
X127756905Y-100617619D01*
X127804524Y-100712857D01*
X127804524Y-100808095D01*
X127756905Y-100950952D01*
X127185476Y-101522381D01*
X127804524Y-101522381D01*
X128137857Y-100522381D02*
X128756905Y-100522381D01*
X128423571Y-100903333D01*
X128566429Y-100903333D01*
X128661667Y-100950952D01*
X128709286Y-100998571D01*
X128756905Y-101093810D01*
X128756905Y-101331905D01*
X128709286Y-101427143D01*
X128661667Y-101474762D01*
X128566429Y-101522381D01*
X128280714Y-101522381D01*
X128185476Y-101474762D01*
X128137857Y-101427143D01*
D10*
X124110405Y-103351738D02*
X123729452Y-103618405D01*
X124110405Y-103808881D02*
X123310405Y-103808881D01*
X123310405Y-103504119D01*
X123348500Y-103427928D01*
X123386595Y-103389833D01*
X123462786Y-103351738D01*
X123577071Y-103351738D01*
X123653262Y-103389833D01*
X123691357Y-103427928D01*
X123729452Y-103504119D01*
X123729452Y-103808881D01*
X124110405Y-102589833D02*
X124110405Y-103046976D01*
X124110405Y-102818405D02*
X123310405Y-102818405D01*
X123424690Y-102894595D01*
X123500881Y-102970786D01*
X123538976Y-103046976D01*
X123310405Y-102094595D02*
X123310405Y-102018404D01*
X123348500Y-101942214D01*
X123386595Y-101904119D01*
X123462786Y-101866023D01*
X123615167Y-101827928D01*
X123805643Y-101827928D01*
X123958024Y-101866023D01*
X124034214Y-101904119D01*
X124072310Y-101942214D01*
X124110405Y-102018404D01*
X124110405Y-102094595D01*
X124072310Y-102170785D01*
X124034214Y-102208881D01*
X123958024Y-102246976D01*
X123805643Y-102285071D01*
X123615167Y-102285071D01*
X123462786Y-102246976D01*
X123386595Y-102208881D01*
X123348500Y-102170785D01*
X123310405Y-102094595D01*
X123310405Y-101332690D02*
X123310405Y-101256499D01*
X123348500Y-101180309D01*
X123386595Y-101142214D01*
X123462786Y-101104118D01*
X123615167Y-101066023D01*
X123805643Y-101066023D01*
X123958024Y-101104118D01*
X124034214Y-101142214D01*
X124072310Y-101180309D01*
X124110405Y-101256499D01*
X124110405Y-101332690D01*
X124072310Y-101408880D01*
X124034214Y-101446976D01*
X123958024Y-101485071D01*
X123805643Y-101523166D01*
X123615167Y-101523166D01*
X123462786Y-101485071D01*
X123386595Y-101446976D01*
X123348500Y-101408880D01*
X123310405Y-101332690D01*
D12*
X129979381Y-114561047D02*
X129503190Y-114894381D01*
X129979381Y-115132476D02*
X128979381Y-115132476D01*
X128979381Y-114751523D01*
X129027000Y-114656285D01*
X129074619Y-114608666D01*
X129169857Y-114561047D01*
X129312714Y-114561047D01*
X129407952Y-114608666D01*
X129455571Y-114656285D01*
X129503190Y-114751523D01*
X129503190Y-115132476D01*
X129979381Y-113608666D02*
X129979381Y-114180095D01*
X129979381Y-113894381D02*
X128979381Y-113894381D01*
X129122238Y-113989619D01*
X129217476Y-114084857D01*
X129265095Y-114180095D01*
X128979381Y-112989619D02*
X128979381Y-112894380D01*
X129027000Y-112799142D01*
X129074619Y-112751523D01*
X129169857Y-112703904D01*
X129360333Y-112656285D01*
X129598429Y-112656285D01*
X129788905Y-112703904D01*
X129884143Y-112751523D01*
X129931762Y-112799142D01*
X129979381Y-112894380D01*
X129979381Y-112989619D01*
X129931762Y-113084857D01*
X129884143Y-113132476D01*
X129788905Y-113180095D01*
X129598429Y-113227714D01*
X129360333Y-113227714D01*
X129169857Y-113180095D01*
X129074619Y-113132476D01*
X129027000Y-113084857D01*
X128979381Y-112989619D01*
X129979381Y-111703904D02*
X129979381Y-112275333D01*
X129979381Y-111989619D02*
X128979381Y-111989619D01*
X129122238Y-112084857D01*
X129217476Y-112180095D01*
X129265095Y-112275333D01*
X127502881Y-120212547D02*
X127026690Y-120545881D01*
X127502881Y-120783976D02*
X126502881Y-120783976D01*
X126502881Y-120403023D01*
X126550500Y-120307785D01*
X126598119Y-120260166D01*
X126693357Y-120212547D01*
X126836214Y-120212547D01*
X126931452Y-120260166D01*
X126979071Y-120307785D01*
X127026690Y-120403023D01*
X127026690Y-120783976D01*
X127502881Y-119260166D02*
X127502881Y-119831595D01*
X127502881Y-119545881D02*
X126502881Y-119545881D01*
X126645738Y-119641119D01*
X126740976Y-119736357D01*
X126788595Y-119831595D01*
X126502881Y-118641119D02*
X126502881Y-118545880D01*
X126550500Y-118450642D01*
X126598119Y-118403023D01*
X126693357Y-118355404D01*
X126883833Y-118307785D01*
X127121929Y-118307785D01*
X127312405Y-118355404D01*
X127407643Y-118403023D01*
X127455262Y-118450642D01*
X127502881Y-118545880D01*
X127502881Y-118641119D01*
X127455262Y-118736357D01*
X127407643Y-118783976D01*
X127312405Y-118831595D01*
X127121929Y-118879214D01*
X126883833Y-118879214D01*
X126693357Y-118831595D01*
X126598119Y-118783976D01*
X126550500Y-118736357D01*
X126502881Y-118641119D01*
X126598119Y-117926833D02*
X126550500Y-117879214D01*
X126502881Y-117783976D01*
X126502881Y-117545880D01*
X126550500Y-117450642D01*
X126598119Y-117403023D01*
X126693357Y-117355404D01*
X126788595Y-117355404D01*
X126931452Y-117403023D01*
X127502881Y-117974452D01*
X127502881Y-117355404D01*
X125915381Y-120212547D02*
X125439190Y-120545881D01*
X125915381Y-120783976D02*
X124915381Y-120783976D01*
X124915381Y-120403023D01*
X124963000Y-120307785D01*
X125010619Y-120260166D01*
X125105857Y-120212547D01*
X125248714Y-120212547D01*
X125343952Y-120260166D01*
X125391571Y-120307785D01*
X125439190Y-120403023D01*
X125439190Y-120783976D01*
X125915381Y-119260166D02*
X125915381Y-119831595D01*
X125915381Y-119545881D02*
X124915381Y-119545881D01*
X125058238Y-119641119D01*
X125153476Y-119736357D01*
X125201095Y-119831595D01*
X124915381Y-118641119D02*
X124915381Y-118545880D01*
X124963000Y-118450642D01*
X125010619Y-118403023D01*
X125105857Y-118355404D01*
X125296333Y-118307785D01*
X125534429Y-118307785D01*
X125724905Y-118355404D01*
X125820143Y-118403023D01*
X125867762Y-118450642D01*
X125915381Y-118545880D01*
X125915381Y-118641119D01*
X125867762Y-118736357D01*
X125820143Y-118783976D01*
X125724905Y-118831595D01*
X125534429Y-118879214D01*
X125296333Y-118879214D01*
X125105857Y-118831595D01*
X125010619Y-118783976D01*
X124963000Y-118736357D01*
X124915381Y-118641119D01*
X124915381Y-117974452D02*
X124915381Y-117355404D01*
X125296333Y-117688738D01*
X125296333Y-117545880D01*
X125343952Y-117450642D01*
X125391571Y-117403023D01*
X125486810Y-117355404D01*
X125724905Y-117355404D01*
X125820143Y-117403023D01*
X125867762Y-117450642D01*
X125915381Y-117545880D01*
X125915381Y-117831595D01*
X125867762Y-117926833D01*
X125820143Y-117974452D01*
D10*
X122840405Y-113892738D02*
X122459452Y-114159405D01*
X122840405Y-114349881D02*
X122040405Y-114349881D01*
X122040405Y-114045119D01*
X122078500Y-113968928D01*
X122116595Y-113930833D01*
X122192786Y-113892738D01*
X122307071Y-113892738D01*
X122383262Y-113930833D01*
X122421357Y-113968928D01*
X122459452Y-114045119D01*
X122459452Y-114349881D01*
X122840405Y-113130833D02*
X122840405Y-113587976D01*
X122840405Y-113359405D02*
X122040405Y-113359405D01*
X122154690Y-113435595D01*
X122230881Y-113511786D01*
X122268976Y-113587976D01*
X122040405Y-112635595D02*
X122040405Y-112559404D01*
X122078500Y-112483214D01*
X122116595Y-112445119D01*
X122192786Y-112407023D01*
X122345167Y-112368928D01*
X122535643Y-112368928D01*
X122688024Y-112407023D01*
X122764214Y-112445119D01*
X122802310Y-112483214D01*
X122840405Y-112559404D01*
X122840405Y-112635595D01*
X122802310Y-112711785D01*
X122764214Y-112749881D01*
X122688024Y-112787976D01*
X122535643Y-112826071D01*
X122345167Y-112826071D01*
X122192786Y-112787976D01*
X122116595Y-112749881D01*
X122078500Y-112711785D01*
X122040405Y-112635595D01*
X122307071Y-111683214D02*
X122840405Y-111683214D01*
X122002310Y-111873690D02*
X122573738Y-112064166D01*
X122573738Y-111568928D01*
D12*
X124137381Y-120149047D02*
X123661190Y-120482381D01*
X124137381Y-120720476D02*
X123137381Y-120720476D01*
X123137381Y-120339523D01*
X123185000Y-120244285D01*
X123232619Y-120196666D01*
X123327857Y-120149047D01*
X123470714Y-120149047D01*
X123565952Y-120196666D01*
X123613571Y-120244285D01*
X123661190Y-120339523D01*
X123661190Y-120720476D01*
X124137381Y-119196666D02*
X124137381Y-119768095D01*
X124137381Y-119482381D02*
X123137381Y-119482381D01*
X123280238Y-119577619D01*
X123375476Y-119672857D01*
X123423095Y-119768095D01*
X123137381Y-118577619D02*
X123137381Y-118482380D01*
X123185000Y-118387142D01*
X123232619Y-118339523D01*
X123327857Y-118291904D01*
X123518333Y-118244285D01*
X123756429Y-118244285D01*
X123946905Y-118291904D01*
X124042143Y-118339523D01*
X124089762Y-118387142D01*
X124137381Y-118482380D01*
X124137381Y-118577619D01*
X124089762Y-118672857D01*
X124042143Y-118720476D01*
X123946905Y-118768095D01*
X123756429Y-118815714D01*
X123518333Y-118815714D01*
X123327857Y-118768095D01*
X123232619Y-118720476D01*
X123185000Y-118672857D01*
X123137381Y-118577619D01*
X123137381Y-117339523D02*
X123137381Y-117815714D01*
X123613571Y-117863333D01*
X123565952Y-117815714D01*
X123518333Y-117720476D01*
X123518333Y-117482380D01*
X123565952Y-117387142D01*
X123613571Y-117339523D01*
X123708810Y-117291904D01*
X123946905Y-117291904D01*
X124042143Y-117339523D01*
X124089762Y-117387142D01*
X124137381Y-117482380D01*
X124137381Y-117720476D01*
X124089762Y-117815714D01*
X124042143Y-117863333D01*
X147076762Y-95217333D02*
X147124381Y-95074476D01*
X147124381Y-94836380D01*
X147076762Y-94741142D01*
X147029143Y-94693523D01*
X146933905Y-94645904D01*
X146838667Y-94645904D01*
X146743429Y-94693523D01*
X146695810Y-94741142D01*
X146648190Y-94836380D01*
X146600571Y-95026857D01*
X146552952Y-95122095D01*
X146505333Y-95169714D01*
X146410095Y-95217333D01*
X146314857Y-95217333D01*
X146219619Y-95169714D01*
X146172000Y-95122095D01*
X146124381Y-95026857D01*
X146124381Y-94788761D01*
X146172000Y-94645904D01*
X146124381Y-94312571D02*
X147124381Y-94074476D01*
X146410095Y-93883999D01*
X147124381Y-93693523D01*
X146124381Y-93455428D01*
X147124381Y-92550666D02*
X147124381Y-93122095D01*
X147124381Y-92836381D02*
X146124381Y-92836381D01*
X146267238Y-92931619D01*
X146362476Y-93026857D01*
X146410095Y-93122095D01*
X101552381Y-108533333D02*
X102266667Y-108533333D01*
X102409524Y-108580953D01*
X102504762Y-108676191D01*
X102552381Y-108819048D01*
X102552381Y-108914286D01*
X102552381Y-107533333D02*
X102552381Y-108104762D01*
X102552381Y-107819048D02*
X101552381Y-107819048D01*
X101695238Y-107914286D01*
X101790476Y-108009524D01*
X101838095Y-108104762D01*
%LPC*%
D18*
X119798800Y-113594400D02*
X119951200Y-113594400D01*
X119951200Y-113594400D02*
X119951200Y-111765600D01*
X119951200Y-111765600D02*
X119798800Y-111765600D01*
X119798800Y-111765600D02*
X119798800Y-113594400D01*
D19*
X107000000Y-130000000D03*
D20*
X143624000Y-122598000D03*
X143624000Y-124098000D03*
D21*
X145529000Y-124398000D03*
X145529000Y-122298000D03*
D19*
X107000000Y-86000000D03*
X151000000Y-86000000D03*
X151000000Y-130000000D03*
D22*
X111000000Y-130000000D03*
X111000000Y-86000000D03*
X147000000Y-86000000D03*
X147000000Y-130000000D03*
D20*
X124000000Y-121750000D03*
X124000000Y-123250000D03*
D23*
X122530000Y-102520000D03*
X121030000Y-102520000D03*
D20*
X139052000Y-112946000D03*
X139052000Y-114446000D03*
X138925000Y-103675000D03*
X138925000Y-105175000D03*
D23*
X137540000Y-98075000D03*
X139040000Y-98075000D03*
X128015000Y-98075000D03*
X129515000Y-98075000D03*
X118490000Y-98075000D03*
X119990000Y-98075000D03*
D24*
X140000000Y-125500000D03*
D25*
X137460000Y-125500000D03*
D24*
X148000000Y-122000000D03*
D25*
X148000000Y-124540000D03*
D24*
X117970000Y-130968000D03*
D25*
X120510000Y-130968000D03*
D24*
X141465000Y-112680000D03*
D25*
X144005000Y-112680000D03*
X141465000Y-115220000D03*
X144005000Y-115220000D03*
X141465000Y-117760000D03*
X144005000Y-117760000D03*
D24*
X141465000Y-103155000D03*
D25*
X144005000Y-103155000D03*
X141465000Y-105695000D03*
X144005000Y-105695000D03*
X141465000Y-108235000D03*
X144005000Y-108235000D03*
D24*
X137020000Y-95535000D03*
D25*
X137020000Y-92995000D03*
X139560000Y-95535000D03*
X139560000Y-92995000D03*
X142100000Y-95535000D03*
X142100000Y-92995000D03*
D24*
X127495000Y-95535000D03*
D25*
X127495000Y-92995000D03*
X130035000Y-95535000D03*
X130035000Y-92995000D03*
X132575000Y-95535000D03*
X132575000Y-92995000D03*
D24*
X117970000Y-95535000D03*
D25*
X117970000Y-92995000D03*
X120510000Y-95535000D03*
X120510000Y-92995000D03*
X123050000Y-95535000D03*
X123050000Y-92995000D03*
D26*
X119113000Y-112680000D03*
X120637000Y-112680000D03*
D27*
X139040000Y-118395000D03*
X137540000Y-118395000D03*
X137540000Y-116490000D03*
X139040000Y-116490000D03*
X139040000Y-108870000D03*
X137540000Y-108870000D03*
X137540000Y-106965000D03*
X139040000Y-106965000D03*
D28*
X142735000Y-97960000D03*
X142735000Y-99460000D03*
X140830000Y-99460000D03*
X140830000Y-97960000D03*
X133210000Y-97960000D03*
X133210000Y-99460000D03*
X131305000Y-99460000D03*
X131305000Y-97960000D03*
X123685000Y-97960000D03*
X123685000Y-99460000D03*
X121780000Y-99460000D03*
X121780000Y-97960000D03*
X114922000Y-128186000D03*
X114922000Y-129686000D03*
X117970000Y-108755000D03*
X117970000Y-110255000D03*
X119240000Y-108755000D03*
X119240000Y-110255000D03*
D27*
X126745000Y-102520000D03*
X128245000Y-102520000D03*
D28*
X124955000Y-103270000D03*
X124955000Y-101770000D03*
X128130000Y-112565000D03*
X128130000Y-114065000D03*
X127050500Y-116668500D03*
X127050500Y-115168500D03*
X125463000Y-116668500D03*
X125463000Y-115168500D03*
X123685000Y-112565000D03*
X123685000Y-114065000D03*
X123685000Y-116605000D03*
X123685000Y-115105000D03*
D29*
X150000000Y-98500000D03*
D30*
X150000000Y-92000000D03*
D31*
X150000000Y-94000000D03*
X150000000Y-96000000D03*
D29*
X150000000Y-89500000D03*
D32*
X122635980Y-110515920D03*
X123286220Y-110515920D03*
X123936460Y-110515920D03*
X124586700Y-110515920D03*
X125236940Y-110515920D03*
X125887180Y-110515920D03*
X126537420Y-110515920D03*
X127182580Y-110515920D03*
X127832820Y-110515920D03*
X128483060Y-110515920D03*
X129133300Y-110515920D03*
X129783540Y-110515920D03*
X130433780Y-110515920D03*
X131084020Y-110515920D03*
X131084020Y-104684080D03*
X130433780Y-104684080D03*
X129783540Y-104684080D03*
X129133300Y-104684080D03*
X128483060Y-104684080D03*
X127832820Y-104684080D03*
X127182580Y-104684080D03*
X126537420Y-104684080D03*
X125887180Y-104684080D03*
X125236940Y-104684080D03*
X124586700Y-104684080D03*
X123936460Y-104684080D03*
X123286220Y-104684080D03*
X122635980Y-104684080D03*
D33*
X110000000Y-121970000D03*
D34*
X110000000Y-124510000D03*
D33*
X110000000Y-94030000D03*
D35*
X107475000Y-90220000D03*
X107475000Y-102920000D03*
X107475000Y-100380000D03*
X107475000Y-97840000D03*
X107475000Y-95300000D03*
X107475000Y-92760000D03*
D33*
X106825000Y-90220000D03*
D35*
X112525000Y-90220000D03*
X112525000Y-92760000D03*
X112525000Y-95300000D03*
X112525000Y-97840000D03*
X112525000Y-100380000D03*
X112525000Y-102920000D03*
X107475000Y-105460000D03*
X112525000Y-105460000D03*
X107475000Y-108000000D03*
X112525000Y-108000000D03*
X107475000Y-110540000D03*
X112525000Y-110540000D03*
X107475000Y-113080000D03*
X112525000Y-113080000D03*
X107475000Y-115620000D03*
X112525000Y-115620000D03*
X107475000Y-118160000D03*
X112525000Y-118160000D03*
X107475000Y-120700000D03*
X112525000Y-120700000D03*
X107475000Y-123240000D03*
X112525000Y-123240000D03*
X107475000Y-125780000D03*
X112525000Y-125780000D03*
D33*
X106825000Y-92760000D03*
X106825000Y-95300000D03*
X106825000Y-97840000D03*
X106825000Y-100380000D03*
X106825000Y-102920000D03*
X106825000Y-105460000D03*
X106825000Y-108000000D03*
X106825000Y-110540000D03*
X106825000Y-113080000D03*
X106825000Y-115620000D03*
X106825000Y-118160000D03*
X106825000Y-120700000D03*
X106825000Y-123240000D03*
X106825000Y-125780000D03*
X113175000Y-90220000D03*
X113175000Y-92760000D03*
X113175000Y-95300000D03*
X113175000Y-97840000D03*
X113175000Y-100380000D03*
X113175000Y-102920000D03*
X113175000Y-105460000D03*
X113175000Y-108000000D03*
X113175000Y-110540000D03*
X113175000Y-113080000D03*
X113175000Y-115620000D03*
X113175000Y-118160000D03*
X113175000Y-120700000D03*
X113175000Y-123240000D03*
X113175000Y-125780000D03*
D34*
X110000000Y-91490000D03*
D36*
X108730000Y-90220000D03*
X111270000Y-90220000D03*
X108730000Y-92760000D03*
X111270000Y-92760000D03*
X108730000Y-95300000D03*
X111270000Y-95300000D03*
X108730000Y-97840000D03*
X111270000Y-97840000D03*
X108730000Y-100380000D03*
X111270000Y-100380000D03*
X108730000Y-102920000D03*
X111270000Y-102920000D03*
X108730000Y-105460000D03*
X111270000Y-105460000D03*
X108730000Y-108000000D03*
X111270000Y-108000000D03*
X108730000Y-110540000D03*
X111270000Y-110540000D03*
X108730000Y-113080000D03*
X111270000Y-113080000D03*
X108730000Y-115620000D03*
X111270000Y-115620000D03*
X108730000Y-118160000D03*
X111270000Y-118160000D03*
X108730000Y-120700000D03*
X111270000Y-120700000D03*
X108730000Y-123240000D03*
X111270000Y-123240000D03*
X108730000Y-125780000D03*
X111270000Y-125780000D03*
M02*
