G04 #@! TF.FileFunction,Legend,Bot*
%FSLAX46Y46*%
G04 Gerber Fmt 4.6, Leading zero omitted, Abs format (unit mm)*
G04 Created by KiCad (PCBNEW 4.0.7) date 09/04/18 00:03:24*
%MOMM*%
%LPD*%
G01*
G04 APERTURE LIST*
%ADD10C,0.100000*%
%ADD11C,0.080000*%
%ADD12C,0.200000*%
%ADD13C,0.002540*%
%ADD14C,3.600000*%
%ADD15C,2.600000*%
%ADD16R,2.100000X2.100000*%
%ADD17O,2.100000X2.100000*%
%ADD18R,3.900000X3.200000*%
%ADD19R,1.750000X1.750000*%
%ADD20O,1.750000X1.750000*%
%ADD21C,1.200000*%
%ADD22C,1.400000*%
%ADD23R,3.550000X1.400000*%
%ADD24C,2.100000*%
G04 APERTURE END LIST*
D10*
D11*
X143865143Y-89340552D02*
X143865143Y-88940552D01*
X143693714Y-89340552D02*
X143693714Y-89131029D01*
X143712762Y-89092933D01*
X143750857Y-89073886D01*
X143808000Y-89073886D01*
X143846095Y-89092933D01*
X143865143Y-89111981D01*
X143331809Y-89340552D02*
X143331809Y-89131029D01*
X143350857Y-89092933D01*
X143388952Y-89073886D01*
X143465143Y-89073886D01*
X143503238Y-89092933D01*
X143331809Y-89321505D02*
X143369905Y-89340552D01*
X143465143Y-89340552D01*
X143503238Y-89321505D01*
X143522286Y-89283410D01*
X143522286Y-89245314D01*
X143503238Y-89207219D01*
X143465143Y-89188171D01*
X143369905Y-89188171D01*
X143331809Y-89169124D01*
X143141333Y-89340552D02*
X143141333Y-89073886D01*
X143141333Y-89150076D02*
X143122285Y-89111981D01*
X143103238Y-89092933D01*
X143065142Y-89073886D01*
X143027047Y-89073886D01*
X142722285Y-89340552D02*
X142722285Y-88940552D01*
X142722285Y-89321505D02*
X142760381Y-89340552D01*
X142836571Y-89340552D01*
X142874666Y-89321505D01*
X142893714Y-89302457D01*
X142912762Y-89264362D01*
X142912762Y-89150076D01*
X142893714Y-89111981D01*
X142874666Y-89092933D01*
X142836571Y-89073886D01*
X142760381Y-89073886D01*
X142722285Y-89092933D01*
X142569904Y-89073886D02*
X142493714Y-89340552D01*
X142417523Y-89150076D01*
X142341333Y-89340552D01*
X142265142Y-89073886D01*
X141941332Y-89340552D02*
X141941332Y-89131029D01*
X141960380Y-89092933D01*
X141998475Y-89073886D01*
X142074666Y-89073886D01*
X142112761Y-89092933D01*
X141941332Y-89321505D02*
X141979428Y-89340552D01*
X142074666Y-89340552D01*
X142112761Y-89321505D01*
X142131809Y-89283410D01*
X142131809Y-89245314D01*
X142112761Y-89207219D01*
X142074666Y-89188171D01*
X141979428Y-89188171D01*
X141941332Y-89169124D01*
X141750856Y-89340552D02*
X141750856Y-89073886D01*
X141750856Y-89150076D02*
X141731808Y-89111981D01*
X141712761Y-89092933D01*
X141674665Y-89073886D01*
X141636570Y-89073886D01*
X141350856Y-89321505D02*
X141388951Y-89340552D01*
X141465142Y-89340552D01*
X141503237Y-89321505D01*
X141522285Y-89283410D01*
X141522285Y-89131029D01*
X141503237Y-89092933D01*
X141465142Y-89073886D01*
X141388951Y-89073886D01*
X141350856Y-89092933D01*
X141331808Y-89131029D01*
X141331808Y-89169124D01*
X141522285Y-89207219D01*
X144160362Y-88781752D02*
X144198457Y-88762705D01*
X144217505Y-88743657D01*
X144236553Y-88705562D01*
X144236553Y-88591276D01*
X144217505Y-88553181D01*
X144198457Y-88534133D01*
X144160362Y-88515086D01*
X144103219Y-88515086D01*
X144065124Y-88534133D01*
X144046076Y-88553181D01*
X144027029Y-88591276D01*
X144027029Y-88705562D01*
X144046076Y-88743657D01*
X144065124Y-88762705D01*
X144103219Y-88781752D01*
X144160362Y-88781752D01*
X143855600Y-88515086D02*
X143855600Y-88915086D01*
X143855600Y-88534133D02*
X143817505Y-88515086D01*
X143741314Y-88515086D01*
X143703219Y-88534133D01*
X143684171Y-88553181D01*
X143665124Y-88591276D01*
X143665124Y-88705562D01*
X143684171Y-88743657D01*
X143703219Y-88762705D01*
X143741314Y-88781752D01*
X143817505Y-88781752D01*
X143855600Y-88762705D01*
X143341314Y-88762705D02*
X143379409Y-88781752D01*
X143455600Y-88781752D01*
X143493695Y-88762705D01*
X143512743Y-88724610D01*
X143512743Y-88572229D01*
X143493695Y-88534133D01*
X143455600Y-88515086D01*
X143379409Y-88515086D01*
X143341314Y-88534133D01*
X143322266Y-88572229D01*
X143322266Y-88610324D01*
X143512743Y-88648419D01*
X143150838Y-88515086D02*
X143150838Y-88781752D01*
X143150838Y-88553181D02*
X143131790Y-88534133D01*
X143093695Y-88515086D01*
X143036552Y-88515086D01*
X142998457Y-88534133D01*
X142979409Y-88572229D01*
X142979409Y-88781752D01*
X142503219Y-88762705D02*
X142465123Y-88781752D01*
X142388933Y-88781752D01*
X142350838Y-88762705D01*
X142331790Y-88724610D01*
X142331790Y-88705562D01*
X142350838Y-88667467D01*
X142388933Y-88648419D01*
X142446076Y-88648419D01*
X142484171Y-88629371D01*
X142503219Y-88591276D01*
X142503219Y-88572229D01*
X142484171Y-88534133D01*
X142446076Y-88515086D01*
X142388933Y-88515086D01*
X142350838Y-88534133D01*
X142103218Y-88781752D02*
X142141313Y-88762705D01*
X142160361Y-88743657D01*
X142179409Y-88705562D01*
X142179409Y-88591276D01*
X142160361Y-88553181D01*
X142141313Y-88534133D01*
X142103218Y-88515086D01*
X142046075Y-88515086D01*
X142007980Y-88534133D01*
X141988932Y-88553181D01*
X141969885Y-88591276D01*
X141969885Y-88705562D01*
X141988932Y-88743657D01*
X142007980Y-88762705D01*
X142046075Y-88781752D01*
X142103218Y-88781752D01*
X141627027Y-88515086D02*
X141627027Y-88781752D01*
X141798456Y-88515086D02*
X141798456Y-88724610D01*
X141779408Y-88762705D01*
X141741313Y-88781752D01*
X141684170Y-88781752D01*
X141646075Y-88762705D01*
X141627027Y-88743657D01*
X141436551Y-88781752D02*
X141436551Y-88515086D01*
X141436551Y-88591276D02*
X141417503Y-88553181D01*
X141398456Y-88534133D01*
X141360360Y-88515086D01*
X141322265Y-88515086D01*
X141017503Y-88762705D02*
X141055599Y-88781752D01*
X141131789Y-88781752D01*
X141169884Y-88762705D01*
X141188932Y-88743657D01*
X141207980Y-88705562D01*
X141207980Y-88591276D01*
X141188932Y-88553181D01*
X141169884Y-88534133D01*
X141131789Y-88515086D01*
X141055599Y-88515086D01*
X141017503Y-88534133D01*
X140693694Y-88762705D02*
X140731789Y-88781752D01*
X140807980Y-88781752D01*
X140846075Y-88762705D01*
X140865123Y-88724610D01*
X140865123Y-88572229D01*
X140846075Y-88534133D01*
X140807980Y-88515086D01*
X140731789Y-88515086D01*
X140693694Y-88534133D01*
X140674646Y-88572229D01*
X140674646Y-88610324D01*
X140865123Y-88648419D01*
D12*
X123589524Y-86113214D02*
X123351429Y-86779881D01*
X123113333Y-86113214D01*
X121446666Y-86779881D02*
X122018095Y-86779881D01*
X121732381Y-86779881D02*
X121732381Y-85779881D01*
X121827619Y-85922738D01*
X121922857Y-86017976D01*
X122018095Y-86065595D01*
X121018095Y-86684643D02*
X120970476Y-86732262D01*
X121018095Y-86779881D01*
X121065714Y-86732262D01*
X121018095Y-86684643D01*
X121018095Y-86779881D01*
X120351429Y-85779881D02*
X120256190Y-85779881D01*
X120160952Y-85827500D01*
X120113333Y-85875119D01*
X120065714Y-85970357D01*
X120018095Y-86160833D01*
X120018095Y-86398929D01*
X120065714Y-86589405D01*
X120113333Y-86684643D01*
X120160952Y-86732262D01*
X120256190Y-86779881D01*
X120351429Y-86779881D01*
X120446667Y-86732262D01*
X120494286Y-86684643D01*
X120541905Y-86589405D01*
X120589524Y-86398929D01*
X120589524Y-86160833D01*
X120541905Y-85970357D01*
X120494286Y-85875119D01*
X120446667Y-85827500D01*
X120351429Y-85779881D01*
X144244785Y-84908214D02*
X144073356Y-84965357D01*
X143787642Y-84965357D01*
X143673356Y-84908214D01*
X143616213Y-84851071D01*
X143559070Y-84736786D01*
X143559070Y-84622500D01*
X143616213Y-84508214D01*
X143673356Y-84451071D01*
X143787642Y-84393929D01*
X144016213Y-84336786D01*
X144130499Y-84279643D01*
X144187642Y-84222500D01*
X144244785Y-84108214D01*
X144244785Y-83993929D01*
X144187642Y-83879643D01*
X144130499Y-83822500D01*
X144016213Y-83765357D01*
X143730499Y-83765357D01*
X143559070Y-83822500D01*
X143044785Y-84336786D02*
X142644785Y-84336786D01*
X142473356Y-84965357D02*
X143044785Y-84965357D01*
X143044785Y-83765357D01*
X142473356Y-83765357D01*
X141273356Y-84965357D02*
X141673356Y-84393929D01*
X141959071Y-84965357D02*
X141959071Y-83765357D01*
X141501928Y-83765357D01*
X141387642Y-83822500D01*
X141330499Y-83879643D01*
X141273356Y-83993929D01*
X141273356Y-84165357D01*
X141330499Y-84279643D01*
X141387642Y-84336786D01*
X141501928Y-84393929D01*
X141959071Y-84393929D01*
X140930499Y-83765357D02*
X140530499Y-84965357D01*
X140130499Y-83765357D01*
X139501928Y-83765357D02*
X139273357Y-83765357D01*
X139159071Y-83822500D01*
X139044785Y-83936786D01*
X138987643Y-84165357D01*
X138987643Y-84565357D01*
X139044785Y-84793929D01*
X139159071Y-84908214D01*
X139273357Y-84965357D01*
X139501928Y-84965357D01*
X139616214Y-84908214D01*
X139730500Y-84793929D01*
X139787643Y-84565357D01*
X139787643Y-84165357D01*
X139730500Y-83936786D01*
X139616214Y-83822500D01*
X139501928Y-83765357D01*
X137559071Y-84965357D02*
X137559071Y-83765357D01*
X137273356Y-83765357D01*
X137101928Y-83822500D01*
X136987642Y-83936786D01*
X136930499Y-84051071D01*
X136873356Y-84279643D01*
X136873356Y-84451071D01*
X136930499Y-84679643D01*
X136987642Y-84793929D01*
X137101928Y-84908214D01*
X137273356Y-84965357D01*
X137559071Y-84965357D01*
X135673356Y-84965357D02*
X136073356Y-84393929D01*
X136359071Y-84965357D02*
X136359071Y-83765357D01*
X135901928Y-83765357D01*
X135787642Y-83822500D01*
X135730499Y-83879643D01*
X135673356Y-83993929D01*
X135673356Y-84165357D01*
X135730499Y-84279643D01*
X135787642Y-84336786D01*
X135901928Y-84393929D01*
X136359071Y-84393929D01*
X135159071Y-84965357D02*
X135159071Y-83765357D01*
X134759070Y-83765357D02*
X134359070Y-84965357D01*
X133959070Y-83765357D01*
X133559071Y-84336786D02*
X133159071Y-84336786D01*
X132987642Y-84965357D02*
X133559071Y-84965357D01*
X133559071Y-83765357D01*
X132987642Y-83765357D01*
X131787642Y-84965357D02*
X132187642Y-84393929D01*
X132473357Y-84965357D02*
X132473357Y-83765357D01*
X132016214Y-83765357D01*
X131901928Y-83822500D01*
X131844785Y-83879643D01*
X131787642Y-83993929D01*
X131787642Y-84165357D01*
X131844785Y-84279643D01*
X131901928Y-84336786D01*
X132016214Y-84393929D01*
X132473357Y-84393929D01*
X130530499Y-84165357D02*
X130073356Y-84165357D01*
X130359071Y-84965357D02*
X130359071Y-83936786D01*
X130301928Y-83822500D01*
X130187642Y-83765357D01*
X130073356Y-83765357D01*
X129501928Y-84965357D02*
X129616214Y-84908214D01*
X129673357Y-84851071D01*
X129730500Y-84736786D01*
X129730500Y-84393929D01*
X129673357Y-84279643D01*
X129616214Y-84222500D01*
X129501928Y-84165357D01*
X129330500Y-84165357D01*
X129216214Y-84222500D01*
X129159071Y-84279643D01*
X129101928Y-84393929D01*
X129101928Y-84736786D01*
X129159071Y-84851071D01*
X129216214Y-84908214D01*
X129330500Y-84965357D01*
X129501928Y-84965357D01*
X128587643Y-84965357D02*
X128587643Y-84165357D01*
X128587643Y-84393929D02*
X128530500Y-84279643D01*
X128473357Y-84222500D01*
X128359071Y-84165357D01*
X128244786Y-84165357D01*
X126930500Y-84965357D02*
X126930500Y-83765357D01*
X126530500Y-84622500D01*
X126130500Y-83765357D01*
X126130500Y-84965357D01*
X124987642Y-83765357D02*
X125559071Y-83765357D01*
X125616214Y-84336786D01*
X125559071Y-84279643D01*
X125444785Y-84222500D01*
X125159071Y-84222500D01*
X125044785Y-84279643D01*
X124987642Y-84336786D01*
X124930499Y-84451071D01*
X124930499Y-84736786D01*
X124987642Y-84851071D01*
X125044785Y-84908214D01*
X125159071Y-84965357D01*
X125444785Y-84965357D01*
X125559071Y-84908214D01*
X125616214Y-84851071D01*
X124473357Y-84908214D02*
X124301928Y-84965357D01*
X124016214Y-84965357D01*
X123901928Y-84908214D01*
X123844785Y-84851071D01*
X123787642Y-84736786D01*
X123787642Y-84622500D01*
X123844785Y-84508214D01*
X123901928Y-84451071D01*
X124016214Y-84393929D01*
X124244785Y-84336786D01*
X124359071Y-84279643D01*
X124416214Y-84222500D01*
X124473357Y-84108214D01*
X124473357Y-83993929D01*
X124416214Y-83879643D01*
X124359071Y-83822500D01*
X124244785Y-83765357D01*
X123959071Y-83765357D01*
X123787642Y-83822500D01*
X123444785Y-84165357D02*
X122987642Y-84165357D01*
X123273357Y-83765357D02*
X123273357Y-84793929D01*
X123216214Y-84908214D01*
X123101928Y-84965357D01*
X122987642Y-84965357D01*
X122073357Y-84965357D02*
X122073357Y-84336786D01*
X122130500Y-84222500D01*
X122244786Y-84165357D01*
X122473357Y-84165357D01*
X122587643Y-84222500D01*
X122073357Y-84908214D02*
X122187643Y-84965357D01*
X122473357Y-84965357D01*
X122587643Y-84908214D01*
X122644786Y-84793929D01*
X122644786Y-84679643D01*
X122587643Y-84565357D01*
X122473357Y-84508214D01*
X122187643Y-84508214D01*
X122073357Y-84451071D01*
X120987643Y-84908214D02*
X121101929Y-84965357D01*
X121330500Y-84965357D01*
X121444786Y-84908214D01*
X121501929Y-84851071D01*
X121559072Y-84736786D01*
X121559072Y-84393929D01*
X121501929Y-84279643D01*
X121444786Y-84222500D01*
X121330500Y-84165357D01*
X121101929Y-84165357D01*
X120987643Y-84222500D01*
X120473358Y-84965357D02*
X120473358Y-83765357D01*
X120359072Y-84508214D02*
X120016215Y-84965357D01*
X120016215Y-84165357D02*
X120473358Y-84622500D01*
D13*
G36*
X143263320Y-88054700D02*
X143245540Y-88047080D01*
X143212520Y-88024220D01*
X143161720Y-87991200D01*
X143103300Y-87953100D01*
X143042340Y-87912460D01*
X142994080Y-87879440D01*
X142958520Y-87856580D01*
X142945820Y-87848960D01*
X142938200Y-87851500D01*
X142910260Y-87866740D01*
X142869620Y-87887060D01*
X142844220Y-87899760D01*
X142806120Y-87915000D01*
X142788340Y-87920080D01*
X142785800Y-87915000D01*
X142770560Y-87884520D01*
X142750240Y-87836260D01*
X142722300Y-87770220D01*
X142689280Y-87694020D01*
X142653720Y-87612740D01*
X142620700Y-87528920D01*
X142587680Y-87450180D01*
X142557200Y-87376520D01*
X142534340Y-87318100D01*
X142519100Y-87277460D01*
X142511480Y-87259680D01*
X142514020Y-87257140D01*
X142531800Y-87239360D01*
X142564820Y-87213960D01*
X142635940Y-87155540D01*
X142707060Y-87069180D01*
X142750240Y-86970120D01*
X142762940Y-86858360D01*
X142752780Y-86756760D01*
X142712140Y-86660240D01*
X142643560Y-86571340D01*
X142559740Y-86505300D01*
X142463220Y-86464660D01*
X142354000Y-86451960D01*
X142249860Y-86462120D01*
X142150800Y-86502760D01*
X142061900Y-86568800D01*
X142023800Y-86611980D01*
X141973000Y-86703420D01*
X141942520Y-86797400D01*
X141939980Y-86820260D01*
X141945060Y-86926940D01*
X141975540Y-87028540D01*
X142031420Y-87117440D01*
X142107620Y-87191100D01*
X142117780Y-87198720D01*
X142153340Y-87226660D01*
X142178740Y-87244440D01*
X142196520Y-87259680D01*
X142061900Y-87582260D01*
X142041580Y-87633060D01*
X142003480Y-87721960D01*
X141973000Y-87798160D01*
X141945060Y-87859120D01*
X141927280Y-87899760D01*
X141919660Y-87915000D01*
X141919660Y-87915000D01*
X141906960Y-87917540D01*
X141884100Y-87909920D01*
X141838380Y-87887060D01*
X141807900Y-87871820D01*
X141774880Y-87856580D01*
X141759640Y-87848960D01*
X141744400Y-87856580D01*
X141711380Y-87876900D01*
X141665660Y-87909920D01*
X141607240Y-87948020D01*
X141551360Y-87986120D01*
X141500560Y-88019140D01*
X141465000Y-88044540D01*
X141447220Y-88052160D01*
X141444680Y-88052160D01*
X141426900Y-88044540D01*
X141398960Y-88019140D01*
X141355780Y-87978500D01*
X141292280Y-87917540D01*
X141282120Y-87907380D01*
X141231320Y-87856580D01*
X141190680Y-87810860D01*
X141162740Y-87780380D01*
X141152580Y-87767680D01*
X141152580Y-87767680D01*
X141162740Y-87749900D01*
X141185600Y-87711800D01*
X141218620Y-87661000D01*
X141259260Y-87600040D01*
X141365940Y-87445100D01*
X141307520Y-87300320D01*
X141289740Y-87254600D01*
X141266880Y-87198720D01*
X141249100Y-87160620D01*
X141241480Y-87142840D01*
X141223700Y-87137760D01*
X141185600Y-87127600D01*
X141127180Y-87117440D01*
X141056060Y-87104740D01*
X140990020Y-87092040D01*
X140931600Y-87079340D01*
X140888420Y-87071720D01*
X140868100Y-87069180D01*
X140863020Y-87064100D01*
X140860480Y-87056480D01*
X140857940Y-87036160D01*
X140855400Y-86998060D01*
X140855400Y-86942180D01*
X140855400Y-86858360D01*
X140855400Y-86850740D01*
X140855400Y-86772000D01*
X140857940Y-86708500D01*
X140860480Y-86670400D01*
X140863020Y-86652620D01*
X140863020Y-86652620D01*
X140880800Y-86647540D01*
X140923980Y-86639920D01*
X140982400Y-86627220D01*
X141053520Y-86614520D01*
X141058600Y-86614520D01*
X141129720Y-86599280D01*
X141188140Y-86586580D01*
X141231320Y-86578960D01*
X141249100Y-86571340D01*
X141251640Y-86566260D01*
X141266880Y-86538320D01*
X141287200Y-86495140D01*
X141310060Y-86441800D01*
X141332920Y-86385920D01*
X141353240Y-86335120D01*
X141365940Y-86299560D01*
X141371020Y-86281780D01*
X141371020Y-86281780D01*
X141360860Y-86264000D01*
X141335460Y-86228440D01*
X141299900Y-86177640D01*
X141259260Y-86116680D01*
X141256720Y-86111600D01*
X141216080Y-86050640D01*
X141183060Y-85999840D01*
X141160200Y-85964280D01*
X141152580Y-85949040D01*
X141152580Y-85946500D01*
X141165280Y-85928720D01*
X141195760Y-85895700D01*
X141241480Y-85849980D01*
X141292280Y-85796640D01*
X141310060Y-85781400D01*
X141368480Y-85722980D01*
X141409120Y-85687420D01*
X141434520Y-85667100D01*
X141444680Y-85662020D01*
X141447220Y-85662020D01*
X141465000Y-85672180D01*
X141503100Y-85697580D01*
X141553900Y-85733140D01*
X141614860Y-85773780D01*
X141617400Y-85776320D01*
X141678360Y-85816960D01*
X141729160Y-85852520D01*
X141764720Y-85875380D01*
X141779960Y-85883000D01*
X141782500Y-85883000D01*
X141805360Y-85877920D01*
X141848540Y-85862680D01*
X141901880Y-85842360D01*
X141957760Y-85819500D01*
X142008560Y-85799180D01*
X142044120Y-85781400D01*
X142061900Y-85771240D01*
X142064440Y-85771240D01*
X142069520Y-85748380D01*
X142079680Y-85702660D01*
X142092380Y-85641700D01*
X142107620Y-85568040D01*
X142110160Y-85557880D01*
X142122860Y-85484220D01*
X142133020Y-85425800D01*
X142143180Y-85385160D01*
X142145720Y-85367380D01*
X142155880Y-85367380D01*
X142191440Y-85364840D01*
X142244780Y-85362300D01*
X142310820Y-85362300D01*
X142376860Y-85362300D01*
X142442900Y-85362300D01*
X142498780Y-85364840D01*
X142539420Y-85367380D01*
X142557200Y-85372460D01*
X142557200Y-85372460D01*
X142562280Y-85395320D01*
X142572440Y-85438500D01*
X142585140Y-85502000D01*
X142600380Y-85575660D01*
X142602920Y-85588360D01*
X142615620Y-85659480D01*
X142628320Y-85717900D01*
X142635940Y-85758540D01*
X142641020Y-85773780D01*
X142646100Y-85776320D01*
X142676580Y-85791560D01*
X142724840Y-85809340D01*
X142783260Y-85834740D01*
X142920420Y-85890620D01*
X143088060Y-85773780D01*
X143103300Y-85763620D01*
X143164260Y-85722980D01*
X143215060Y-85689960D01*
X143250620Y-85667100D01*
X143263320Y-85659480D01*
X143265860Y-85659480D01*
X143281100Y-85674720D01*
X143314120Y-85705200D01*
X143359840Y-85750920D01*
X143413180Y-85801720D01*
X143453820Y-85842360D01*
X143499540Y-85888080D01*
X143527480Y-85921100D01*
X143545260Y-85941420D01*
X143550340Y-85954120D01*
X143547800Y-85961740D01*
X143537640Y-85979520D01*
X143512240Y-86015080D01*
X143479220Y-86068420D01*
X143438580Y-86126840D01*
X143403020Y-86177640D01*
X143367460Y-86233520D01*
X143344600Y-86274160D01*
X143334440Y-86291940D01*
X143336980Y-86302100D01*
X143349680Y-86335120D01*
X143370000Y-86383380D01*
X143395400Y-86444340D01*
X143453820Y-86576420D01*
X143540180Y-86594200D01*
X143593520Y-86604360D01*
X143667180Y-86617060D01*
X143738300Y-86632300D01*
X143850060Y-86652620D01*
X143852600Y-87056480D01*
X143834820Y-87064100D01*
X143819580Y-87069180D01*
X143778940Y-87079340D01*
X143720520Y-87089500D01*
X143651940Y-87102200D01*
X143590980Y-87114900D01*
X143532560Y-87125060D01*
X143489380Y-87132680D01*
X143471600Y-87137760D01*
X143466520Y-87142840D01*
X143451280Y-87173320D01*
X143430960Y-87219040D01*
X143408100Y-87272380D01*
X143382700Y-87330800D01*
X143362380Y-87381600D01*
X143347140Y-87422240D01*
X143342060Y-87442560D01*
X143349680Y-87457800D01*
X143372540Y-87493360D01*
X143405560Y-87544160D01*
X143446200Y-87602580D01*
X143486840Y-87661000D01*
X143519860Y-87711800D01*
X143545260Y-87747360D01*
X143552880Y-87765140D01*
X143547800Y-87775300D01*
X143524940Y-87803240D01*
X143481760Y-87848960D01*
X143415720Y-87915000D01*
X143403020Y-87925160D01*
X143352220Y-87975960D01*
X143306500Y-88016600D01*
X143276020Y-88044540D01*
X143263320Y-88054700D01*
X143263320Y-88054700D01*
G37*
X143263320Y-88054700D02*
X143245540Y-88047080D01*
X143212520Y-88024220D01*
X143161720Y-87991200D01*
X143103300Y-87953100D01*
X143042340Y-87912460D01*
X142994080Y-87879440D01*
X142958520Y-87856580D01*
X142945820Y-87848960D01*
X142938200Y-87851500D01*
X142910260Y-87866740D01*
X142869620Y-87887060D01*
X142844220Y-87899760D01*
X142806120Y-87915000D01*
X142788340Y-87920080D01*
X142785800Y-87915000D01*
X142770560Y-87884520D01*
X142750240Y-87836260D01*
X142722300Y-87770220D01*
X142689280Y-87694020D01*
X142653720Y-87612740D01*
X142620700Y-87528920D01*
X142587680Y-87450180D01*
X142557200Y-87376520D01*
X142534340Y-87318100D01*
X142519100Y-87277460D01*
X142511480Y-87259680D01*
X142514020Y-87257140D01*
X142531800Y-87239360D01*
X142564820Y-87213960D01*
X142635940Y-87155540D01*
X142707060Y-87069180D01*
X142750240Y-86970120D01*
X142762940Y-86858360D01*
X142752780Y-86756760D01*
X142712140Y-86660240D01*
X142643560Y-86571340D01*
X142559740Y-86505300D01*
X142463220Y-86464660D01*
X142354000Y-86451960D01*
X142249860Y-86462120D01*
X142150800Y-86502760D01*
X142061900Y-86568800D01*
X142023800Y-86611980D01*
X141973000Y-86703420D01*
X141942520Y-86797400D01*
X141939980Y-86820260D01*
X141945060Y-86926940D01*
X141975540Y-87028540D01*
X142031420Y-87117440D01*
X142107620Y-87191100D01*
X142117780Y-87198720D01*
X142153340Y-87226660D01*
X142178740Y-87244440D01*
X142196520Y-87259680D01*
X142061900Y-87582260D01*
X142041580Y-87633060D01*
X142003480Y-87721960D01*
X141973000Y-87798160D01*
X141945060Y-87859120D01*
X141927280Y-87899760D01*
X141919660Y-87915000D01*
X141919660Y-87915000D01*
X141906960Y-87917540D01*
X141884100Y-87909920D01*
X141838380Y-87887060D01*
X141807900Y-87871820D01*
X141774880Y-87856580D01*
X141759640Y-87848960D01*
X141744400Y-87856580D01*
X141711380Y-87876900D01*
X141665660Y-87909920D01*
X141607240Y-87948020D01*
X141551360Y-87986120D01*
X141500560Y-88019140D01*
X141465000Y-88044540D01*
X141447220Y-88052160D01*
X141444680Y-88052160D01*
X141426900Y-88044540D01*
X141398960Y-88019140D01*
X141355780Y-87978500D01*
X141292280Y-87917540D01*
X141282120Y-87907380D01*
X141231320Y-87856580D01*
X141190680Y-87810860D01*
X141162740Y-87780380D01*
X141152580Y-87767680D01*
X141152580Y-87767680D01*
X141162740Y-87749900D01*
X141185600Y-87711800D01*
X141218620Y-87661000D01*
X141259260Y-87600040D01*
X141365940Y-87445100D01*
X141307520Y-87300320D01*
X141289740Y-87254600D01*
X141266880Y-87198720D01*
X141249100Y-87160620D01*
X141241480Y-87142840D01*
X141223700Y-87137760D01*
X141185600Y-87127600D01*
X141127180Y-87117440D01*
X141056060Y-87104740D01*
X140990020Y-87092040D01*
X140931600Y-87079340D01*
X140888420Y-87071720D01*
X140868100Y-87069180D01*
X140863020Y-87064100D01*
X140860480Y-87056480D01*
X140857940Y-87036160D01*
X140855400Y-86998060D01*
X140855400Y-86942180D01*
X140855400Y-86858360D01*
X140855400Y-86850740D01*
X140855400Y-86772000D01*
X140857940Y-86708500D01*
X140860480Y-86670400D01*
X140863020Y-86652620D01*
X140863020Y-86652620D01*
X140880800Y-86647540D01*
X140923980Y-86639920D01*
X140982400Y-86627220D01*
X141053520Y-86614520D01*
X141058600Y-86614520D01*
X141129720Y-86599280D01*
X141188140Y-86586580D01*
X141231320Y-86578960D01*
X141249100Y-86571340D01*
X141251640Y-86566260D01*
X141266880Y-86538320D01*
X141287200Y-86495140D01*
X141310060Y-86441800D01*
X141332920Y-86385920D01*
X141353240Y-86335120D01*
X141365940Y-86299560D01*
X141371020Y-86281780D01*
X141371020Y-86281780D01*
X141360860Y-86264000D01*
X141335460Y-86228440D01*
X141299900Y-86177640D01*
X141259260Y-86116680D01*
X141256720Y-86111600D01*
X141216080Y-86050640D01*
X141183060Y-85999840D01*
X141160200Y-85964280D01*
X141152580Y-85949040D01*
X141152580Y-85946500D01*
X141165280Y-85928720D01*
X141195760Y-85895700D01*
X141241480Y-85849980D01*
X141292280Y-85796640D01*
X141310060Y-85781400D01*
X141368480Y-85722980D01*
X141409120Y-85687420D01*
X141434520Y-85667100D01*
X141444680Y-85662020D01*
X141447220Y-85662020D01*
X141465000Y-85672180D01*
X141503100Y-85697580D01*
X141553900Y-85733140D01*
X141614860Y-85773780D01*
X141617400Y-85776320D01*
X141678360Y-85816960D01*
X141729160Y-85852520D01*
X141764720Y-85875380D01*
X141779960Y-85883000D01*
X141782500Y-85883000D01*
X141805360Y-85877920D01*
X141848540Y-85862680D01*
X141901880Y-85842360D01*
X141957760Y-85819500D01*
X142008560Y-85799180D01*
X142044120Y-85781400D01*
X142061900Y-85771240D01*
X142064440Y-85771240D01*
X142069520Y-85748380D01*
X142079680Y-85702660D01*
X142092380Y-85641700D01*
X142107620Y-85568040D01*
X142110160Y-85557880D01*
X142122860Y-85484220D01*
X142133020Y-85425800D01*
X142143180Y-85385160D01*
X142145720Y-85367380D01*
X142155880Y-85367380D01*
X142191440Y-85364840D01*
X142244780Y-85362300D01*
X142310820Y-85362300D01*
X142376860Y-85362300D01*
X142442900Y-85362300D01*
X142498780Y-85364840D01*
X142539420Y-85367380D01*
X142557200Y-85372460D01*
X142557200Y-85372460D01*
X142562280Y-85395320D01*
X142572440Y-85438500D01*
X142585140Y-85502000D01*
X142600380Y-85575660D01*
X142602920Y-85588360D01*
X142615620Y-85659480D01*
X142628320Y-85717900D01*
X142635940Y-85758540D01*
X142641020Y-85773780D01*
X142646100Y-85776320D01*
X142676580Y-85791560D01*
X142724840Y-85809340D01*
X142783260Y-85834740D01*
X142920420Y-85890620D01*
X143088060Y-85773780D01*
X143103300Y-85763620D01*
X143164260Y-85722980D01*
X143215060Y-85689960D01*
X143250620Y-85667100D01*
X143263320Y-85659480D01*
X143265860Y-85659480D01*
X143281100Y-85674720D01*
X143314120Y-85705200D01*
X143359840Y-85750920D01*
X143413180Y-85801720D01*
X143453820Y-85842360D01*
X143499540Y-85888080D01*
X143527480Y-85921100D01*
X143545260Y-85941420D01*
X143550340Y-85954120D01*
X143547800Y-85961740D01*
X143537640Y-85979520D01*
X143512240Y-86015080D01*
X143479220Y-86068420D01*
X143438580Y-86126840D01*
X143403020Y-86177640D01*
X143367460Y-86233520D01*
X143344600Y-86274160D01*
X143334440Y-86291940D01*
X143336980Y-86302100D01*
X143349680Y-86335120D01*
X143370000Y-86383380D01*
X143395400Y-86444340D01*
X143453820Y-86576420D01*
X143540180Y-86594200D01*
X143593520Y-86604360D01*
X143667180Y-86617060D01*
X143738300Y-86632300D01*
X143850060Y-86652620D01*
X143852600Y-87056480D01*
X143834820Y-87064100D01*
X143819580Y-87069180D01*
X143778940Y-87079340D01*
X143720520Y-87089500D01*
X143651940Y-87102200D01*
X143590980Y-87114900D01*
X143532560Y-87125060D01*
X143489380Y-87132680D01*
X143471600Y-87137760D01*
X143466520Y-87142840D01*
X143451280Y-87173320D01*
X143430960Y-87219040D01*
X143408100Y-87272380D01*
X143382700Y-87330800D01*
X143362380Y-87381600D01*
X143347140Y-87422240D01*
X143342060Y-87442560D01*
X143349680Y-87457800D01*
X143372540Y-87493360D01*
X143405560Y-87544160D01*
X143446200Y-87602580D01*
X143486840Y-87661000D01*
X143519860Y-87711800D01*
X143545260Y-87747360D01*
X143552880Y-87765140D01*
X143547800Y-87775300D01*
X143524940Y-87803240D01*
X143481760Y-87848960D01*
X143415720Y-87915000D01*
X143403020Y-87925160D01*
X143352220Y-87975960D01*
X143306500Y-88016600D01*
X143276020Y-88044540D01*
X143263320Y-88054700D01*
%LPC*%
D14*
X107000000Y-130000000D03*
X107000000Y-86000000D03*
X151000000Y-86000000D03*
X151000000Y-130000000D03*
D15*
X111000000Y-130000000D03*
X111000000Y-86000000D03*
X147000000Y-86000000D03*
X147000000Y-130000000D03*
D16*
X140000000Y-125500000D03*
D17*
X137460000Y-125500000D03*
D16*
X148000000Y-122000000D03*
D17*
X148000000Y-124540000D03*
D16*
X117970000Y-130968000D03*
D17*
X120510000Y-130968000D03*
D16*
X141465000Y-112680000D03*
D17*
X144005000Y-112680000D03*
X141465000Y-115220000D03*
X144005000Y-115220000D03*
X141465000Y-117760000D03*
X144005000Y-117760000D03*
D16*
X141465000Y-103155000D03*
D17*
X144005000Y-103155000D03*
X141465000Y-105695000D03*
X144005000Y-105695000D03*
X141465000Y-108235000D03*
X144005000Y-108235000D03*
D16*
X137020000Y-95535000D03*
D17*
X137020000Y-92995000D03*
X139560000Y-95535000D03*
X139560000Y-92995000D03*
X142100000Y-95535000D03*
X142100000Y-92995000D03*
D16*
X127495000Y-95535000D03*
D17*
X127495000Y-92995000D03*
X130035000Y-95535000D03*
X130035000Y-92995000D03*
X132575000Y-95535000D03*
X132575000Y-92995000D03*
D16*
X117970000Y-95535000D03*
D17*
X117970000Y-92995000D03*
X120510000Y-95535000D03*
X120510000Y-92995000D03*
X123050000Y-95535000D03*
X123050000Y-92995000D03*
D18*
X150000000Y-98500000D03*
D19*
X150000000Y-92000000D03*
D20*
X150000000Y-94000000D03*
X150000000Y-96000000D03*
D18*
X150000000Y-89500000D03*
D21*
X110000000Y-121970000D03*
D22*
X110000000Y-124510000D03*
D21*
X110000000Y-94030000D03*
D23*
X107475000Y-90220000D03*
D21*
X106825000Y-90220000D03*
D23*
X112555000Y-90220000D03*
X107475000Y-92760000D03*
X112555000Y-92760000D03*
X107475000Y-95300000D03*
X112555000Y-95300000D03*
X107475000Y-97840000D03*
X112555000Y-97840000D03*
X107475000Y-100380000D03*
X112555000Y-100380000D03*
X107475000Y-102920000D03*
X112555000Y-102920000D03*
X107475000Y-105460000D03*
X112555000Y-105460000D03*
X107475000Y-108000000D03*
X112555000Y-108000000D03*
X107475000Y-110540000D03*
X112555000Y-110540000D03*
X107475000Y-113080000D03*
X112555000Y-113080000D03*
X107475000Y-115620000D03*
X112555000Y-115620000D03*
X107475000Y-118160000D03*
X112555000Y-118160000D03*
X107475000Y-120700000D03*
X112555000Y-120700000D03*
X107475000Y-123240000D03*
X112555000Y-123240000D03*
X107475000Y-125780000D03*
X112555000Y-125780000D03*
D21*
X106825000Y-92760000D03*
X106825000Y-95300000D03*
X106825000Y-97840000D03*
X106825000Y-100380000D03*
X106825000Y-102920000D03*
X106825000Y-105460000D03*
X106825000Y-108000000D03*
X106825000Y-110540000D03*
X106825000Y-113080000D03*
X106825000Y-115620000D03*
X106825000Y-118160000D03*
X106825000Y-120700000D03*
X106825000Y-123240000D03*
X106825000Y-125780000D03*
X113175000Y-90220000D03*
X113175000Y-92760000D03*
X113175000Y-95300000D03*
X113175000Y-97840000D03*
X113175000Y-100380000D03*
X113175000Y-102920000D03*
X113175000Y-105460000D03*
X113175000Y-108000000D03*
X113175000Y-110540000D03*
X113175000Y-113080000D03*
X113175000Y-115620000D03*
X113175000Y-118160000D03*
X113175000Y-120700000D03*
X113175000Y-123240000D03*
X113175000Y-125780000D03*
D22*
X110000000Y-91490000D03*
D24*
X108730000Y-90220000D03*
X111270000Y-90220000D03*
X108730000Y-92760000D03*
X111270000Y-92760000D03*
X108730000Y-95300000D03*
X111270000Y-95300000D03*
X108730000Y-97840000D03*
X111270000Y-97840000D03*
X108730000Y-100380000D03*
X111270000Y-100380000D03*
X108730000Y-102920000D03*
X111270000Y-102920000D03*
X108730000Y-105460000D03*
X111270000Y-105460000D03*
X108730000Y-108000000D03*
X111270000Y-108000000D03*
X108730000Y-110540000D03*
X111270000Y-110540000D03*
X108730000Y-113080000D03*
X111270000Y-113080000D03*
X108730000Y-115620000D03*
X111270000Y-115620000D03*
X108730000Y-118160000D03*
X111270000Y-118160000D03*
X108730000Y-120700000D03*
X111270000Y-120700000D03*
X108730000Y-123240000D03*
X111270000Y-123240000D03*
X108730000Y-125780000D03*
X111270000Y-125780000D03*
M02*
