M48
;DRILL file {KiCad 4.0.7} date 09/04/18 00:03:27
;FORMAT={3:3/ absolute / metric / suppress trailing zeros}
FMAT,2
METRIC,LZ
T1C0.400
T2C0.800
T3C1.000
%
G90
G05
M71
T1
X106825Y-09022
X106825Y-09276
X106825Y-0953
X106825Y-09784
X106825Y-10038
X106825Y-10292
X106825Y-10546
X106825Y-108
X106825Y-11054
X106825Y-11308
X106825Y-11562
X106825Y-11816
X106825Y-1207
X106825Y-12324
X106825Y-12578
X113175Y-09022
X113175Y-09276
X113175Y-0953
X113175Y-09784
X113175Y-10038
X113175Y-10292
X113175Y-10546
X113175Y-108
X113175Y-11054
X113175Y-11308
X113175Y-11562
X113175Y-11816
X113175Y-1207
X113175Y-12324
X113175Y-12578
X116192Y-110546
X116751Y-107905
X116802Y-108768
X119685Y-114077
X11985Y-100336
X121463Y-114077
X122542Y-103409
X122542Y-117062
X122542Y-121824
X124892Y-106013
X125336Y-122586
X125653Y-109378
X126543Y-109378
X127876Y-122586
X128257Y-103663
X129781Y-109378
X130035Y-117189
X130416Y-107854
X130416Y-11649
X131051Y-109251
X131369Y-100424
X13321Y-100361
X133464Y-122586
X13375Y-126
X137528Y-122586
X137782Y-114458
X144132Y-098837
X14845Y-105949
X14845Y-114839
T2
X15Y-092
X15Y-094
X15Y-096
T3
X10873Y-09022
X10873Y-09276
X10873Y-0953
X10873Y-09784
X10873Y-10038
X10873Y-10292
X10873Y-10546
X10873Y-108
X10873Y-11054
X10873Y-11308
X10873Y-11562
X10873Y-11816
X10873Y-1207
X10873Y-12324
X10873Y-12578
X11127Y-09022
X11127Y-09276
X11127Y-0953
X11127Y-09784
X11127Y-10038
X11127Y-10292
X11127Y-10546
X11127Y-108
X11127Y-11054
X11127Y-11308
X11127Y-11562
X11127Y-11816
X11127Y-1207
X11127Y-12324
X11127Y-12578
X11797Y-092995
X11797Y-095535
X11797Y-130968
X12051Y-092995
X12051Y-095535
X12051Y-130968
X12305Y-092995
X12305Y-095535
X127495Y-092995
X127495Y-095535
X130035Y-092995
X130035Y-095535
X132575Y-092995
X132575Y-095535
X13702Y-092995
X13702Y-095535
X13746Y-1255
X13956Y-092995
X13956Y-095535
X14Y-1255
X141465Y-103155
X141465Y-105695
X141465Y-108235
X141465Y-11268
X141465Y-11522
X141465Y-11776
X1421Y-092995
X1421Y-095535
X144005Y-103155
X144005Y-105695
X144005Y-108235
X144005Y-11268
X144005Y-11522
X144005Y-11776
X148Y-122
X148Y-12454
T2
X14965Y-0895G85X15035Y-0895
G05
X14965Y-0985G85X15035Y-0985
G05
T0
M30
